<svg xmlns="http://www.w3.org/2000/svg" data-name="Layer 1" viewBox="0 0 64 64" x="0px" y="0px"><title>climate change</title><path d="M33.07,43.78a1,1,0,0,1-1-1V26.22a1,1,0,0,1,2,0V42.78A1,1,0,0,1,33.07,43.78Z"></path><path d="M9.53,53.52a1,1,0,0,1-1-1V26.22a1,1,0,0,1,2,0v26.3A1,1,0,0,1,9.53,53.52Z"></path><path d="M34.91,27.22H7.39a1.87,1.87,0,0,1-1.87-1.87V21.9A1.87,1.87,0,0,1,7.39,20H34.91a1.87,1.87,0,0,1,1.87,1.87v3.45A1.87,1.87,0,0,1,34.91,27.22Zm-27.39-2H34.78V22H7.52ZM34.91,22h0Z"></path><path d="M16.39,43a1,1,0,0,1-1-1V34.63a1,1,0,0,1,2,0V42A1,1,0,0,1,16.39,43Z"></path><path d="M21.3,43a1,1,0,0,1-1-1V34.63a1,1,0,0,1,2,0V42A1,1,0,0,1,21.3,43Z"></path><path d="M26.2,43a1,1,0,0,1-1-1V34.63a1,1,0,0,1,2,0V42A1,1,0,0,1,26.2,43Z"></path><path d="M7.21,55.31H2a1,1,0,1,1,0-2h5.2a1,1,0,1,1,0,2Z"></path><path d="M26.2,55.31h-19a1,1,0,0,1-.74-1.68c.24-.25,5.8-6.1,18.4-5.78,1.2-1.9,5.82-7.79,16.11-7a1,1,0,1,1-.16,2c-10.66-.86-14.46,6.38-14.5,6.45a.93.93,0,0,1-.93.55c-7.74-.3-12.67,1.84-15.25,3.44H26.2a1,1,0,1,1,0,2Z"></path><path d="M62,55.31H35.78a1,1,0,0,1,0-2H62a1,1,0,1,1,0,2Z"></path><path d="M52.6,55.31H46.71a7.18,7.18,0,0,1-6.77-4.84l-.28-.82a1.89,1.89,0,0,1,0-.23L39.08,44a1,1,0,0,1,.11-.56l2.24-4.29a.92.92,0,0,1,.32-.36l3.89-2.71.5-2.57-2.21-4.83a1,1,0,0,1,.14-1.05,1,1,0,0,1,1-.34l3.69.85,3.13-2.28a1,1,0,0,1,.59-.19h3.18a1,1,0,0,1,.86.49,1,1,0,0,1,0,1l-3.37,6.4.5,2.54,3.9,2.71a1,1,0,0,1,.31.36l2.24,4.29a1,1,0,0,1,.11.56l-.53,5.39a1.89,1.89,0,0,1-.05.23l-.28.82A7.16,7.16,0,0,1,52.6,55.31Zm-11-6.2.25.71a5.14,5.14,0,0,0,4.87,3.49H52.6a5.14,5.14,0,0,0,4.87-3.49l.25-.71.49-5-2-3.81-4-2.8a1,1,0,0,1-.41-.63l-.64-3.29a1,1,0,0,1,.1-.65L54,27.7H52.8l-3.23,2.36a1,1,0,0,1-.82.16l-2.15-.5L48.09,33a1,1,0,0,1,.08.6l-.64,3.29a1,1,0,0,1-.41.63l-4,2.8-2,3.81Z"></path><path d="M52.17,34.41h-5a1,1,0,0,1,0-2h5a1,1,0,0,1,0,2Z"></path><path d="M29.05,22h0a1,1,0,0,1-1-1,6.43,6.43,0,0,0-.93-3.24,1,1,0,0,1,0-1.16L30,12.91a1,1,0,1,1,1.6,1.2L29.14,17.3a8.15,8.15,0,0,1,.91,3.75A1,1,0,0,1,29.05,22Z"></path><path d="M15.22,22a1,1,0,0,1-.6-.2,1,1,0,0,1-.2-1.4c.84-1.13,2-2.62,3.16-4.18a6.9,6.9,0,0,1,7-2.38L27,10.68a1,1,0,0,1,1.41-.2,1,1,0,0,1,.19,1.4L25.81,15.6A1,1,0,0,1,24.7,16c-.14,0-3.56-1.09-5.52,1.51C18,19,16.86,20.5,16,21.63A1,1,0,0,1,15.22,22Z"></path><path d="M31.76,15.1a1.66,1.66,0,0,1-1-.34l-4.13-3.13a1.68,1.68,0,0,1-.33-2.35l1.55-2a1.69,1.69,0,0,1,2.35-.33L34.33,10A1.69,1.69,0,0,1,35,11.14a1.62,1.62,0,0,1-.32,1.24l-1.55,2A1.67,1.67,0,0,1,31.76,15.1Zm-3.68-4.87L31.7,13l1.16-1.54L29.24,8.69Zm5,1.4Z"></path><path d="M40.08,63H17.73a1,1,0,0,1,0-2H40.08a1,1,0,0,1,0,2Z"></path><path d="M8.13,63H3.33a1,1,0,1,1,0-2h4.8a1,1,0,0,1,0,2Z"></path><path d="M56.12,63H53.05a1,1,0,0,1,0-2h3.07a1,1,0,1,1,0,2Z"></path><path d="M57.21,20.71a1.25,1.25,0,0,1-.32-.05,1,1,0,0,1-.62-1.28L57.08,17a1.87,1.87,0,0,0-.53-1.91,3.82,3.82,0,0,1-1-4.51l.7-1.4a1,1,0,0,1,1.34-.45,1,1,0,0,1,.45,1.34l-.71,1.41a1.83,1.83,0,0,0,.47,2.06A3.85,3.85,0,0,1,59,17.7L58.16,20A1,1,0,0,1,57.21,20.71Z"></path><path d="M44.74,20.71a1.26,1.26,0,0,1-.33-.05,1,1,0,0,1-.62-1.28L44.6,17a1.86,1.86,0,0,0-.52-1.91,3.82,3.82,0,0,1-1-4.51l.7-1.4a1,1,0,1,1,1.79.89l-.7,1.41a1.83,1.83,0,0,0,.46,2.06,3.84,3.84,0,0,1,1.15,4.12L45.68,20A1,1,0,0,1,44.74,20.71Z"></path><path d="M50.14,13.05a1,1,0,0,1-.33-.06,1,1,0,0,1-.61-1.27L50,9.38a1.88,1.88,0,0,0-.53-1.92,3.82,3.82,0,0,1-1-4.5l.7-1.41a1,1,0,0,1,1.34-.44A1,1,0,0,1,51,2.45l-.7,1.4a1.83,1.83,0,0,0,.47,2.07A3.86,3.86,0,0,1,51.9,10l-.82,2.35A1,1,0,0,1,50.14,13.05Z"></path></svg>