<svg xmlns="http://www.w3.org/2000/svg" data-name="Layer 1" viewBox="0 0 90 69.75" x="0px" y="0px"><title>05</title><path d="M93.59,33.44a11.08,11.08,0,0,0-5.09-5.9c.07-1.61.08-7.4-3-9.91-1.84-1.51-5.63-1.88-8.67-2.18-.8-.08-1.56-.15-2.21-.24a33.58,33.58,0,0,0-13.3,2,.59.59,0,0,0-.19.13A58.28,58.28,0,0,0,54,18l-.5.08c-4.42.66-9.46,3.52-9.63,6.57a8.51,8.51,0,0,0,1.86,5.79c-1.44,0-2.41.07-2.54.08h-.05c-.48.07-11.82,1.79-13.35,7.91a19.27,19.27,0,0,0,1,11.16A18.8,18.8,0,0,0,24.06,52c-2.37,1.38-9.68,2.61-9.77,2.63A7.94,7.94,0,0,0,10.87,56a13.76,13.76,0,0,1-4.54,2.14A1.79,1.79,0,0,0,5.05,59.5c-.31,1.32.78,2.93,1.23,3.39h0a7.58,7.58,0,0,0,4.51,2.45c.11,0,11.45,1,14.21-.26.41-.19.8-.38,1.18-.57,1.81-.89,2.89-1.37,4.1-.7s2.13,3.49,2.32,4.49a.59.59,0,0,0,.06.16,11.78,11.78,0,0,0,.23,4.26c.05.52.6,4,5.84,7.85,3.48,2.55,9.56,4.27,16.21,4.27A36,36,0,0,0,66.67,83,17,17,0,0,0,77,73a17.79,17.79,0,0,0-.42-14.54,16.08,16.08,0,0,0-1.7-2.61,71.72,71.72,0,0,0,10.75-.55,10.85,10.85,0,0,0,9-9A25.81,25.81,0,0,0,93.59,33.44Zm-.14,12.68a9.67,9.67,0,0,1-8,8,76.6,76.6,0,0,1-11.6.51c-5.51-6-16.07-11.29-26-12.63a2.89,2.89,0,0,1-2-1.31,2.75,2.75,0,0,1-.33-2.3,1.5,1.5,0,0,1,.34-.63.59.59,0,1,0-.84-.84,2.65,2.65,0,0,0-.63,1.11,3.94,3.94,0,0,0,.46,3.29,4.07,4.07,0,0,0,2.89,1.85C59.12,44.75,71.89,52,75.49,59a16.59,16.59,0,0,1,.38,13.56,15.86,15.86,0,0,1-9.59,9.27c-10,3.46-21.71,1.55-26.85-2.2s-5.36-7-5.36-7a.58.58,0,0,0,0-.11c-1.76-7.22,4.93-13,5-13.1a.59.59,0,0,0-.77-.9,18.54,18.54,0,0,0-5.08,7.59,6.21,6.21,0,0,0-2.34-3.3c-1.81-1-3.45-.19-5.2.67-.37.18-.75.37-1.14.55-1.92.87-10.51.47-13.6.16a5.34,5.34,0,0,1-2.58-1.05l5.4.15h0a.59.59,0,0,0,0-1.19L7,61.9a3.24,3.24,0,0,1-.79-2.13c0-.15.12-.34.49-.46,2.57-.86,4.25-1.67,5-2.43a6.81,6.81,0,0,1,2.79-1.08c.31-.05,7.61-1.28,10.16-2.77,2-1.19,7.34-3.71,12.53-1.42,6,2.63,8.94,5.72,8.78,9.18a5.84,5.84,0,0,0,2.35,4.76,12.29,12.29,0,0,0,10.41,2.07.59.59,0,0,0-.28-1.15,11.07,11.07,0,0,1-9.38-1.83,4.69,4.69,0,0,1-1.93-3.79c.19-4.05-2.91-7.43-9.48-10.32a12.36,12.36,0,0,0-5.66-1c-.53-1.28-2.25-6-1.06-10.75,1.31-5.23,11.76-6.93,12.35-7s11.45-.54,16.53,1.42c4.4,1.69,14.61,3.53,17,1.61a1.49,1.49,0,0,0,.59-1.42.59.59,0,1,0-1.17.17.31.31,0,0,1-.15.33c-1.69,1.35-11,.06-15.86-1.79-3.41-1.31-9.05-1.58-12.91-1.58h0a7.39,7.39,0,0,1-2.26-5.7c.12-2.16,4.31-4.82,8.63-5.46l.5-.08c4.1-.62,11-1.66,16.38.86,5.08,2.36,9.83,1.47,10.71.2a.87.87,0,0,0-.09-1.16.59.59,0,0,0-1,.57c-.76.55-4.6,1.41-9.14-.69a19.3,19.3,0,0,0-6.55-1.62,33.32,33.32,0,0,1,10-1c.67.09,1.44.16,2.25.24,2.89.28,6.48.63,8,1.91,2.34,1.93,2.57,6.44,2.55,8.39-3.43-1.58-8-2.19-13.63-1.76-2.86.22-9.9.58-13.43-.79a17.08,17.08,0,0,0-8-.86.59.59,0,0,0,.18,1.17,16.15,16.15,0,0,1,7.37.8c3.63,1.41,10.3,1.15,14,.87,5.75-.44,10.38.25,13.67,2a.59.59,0,0,0,.29.16,10,10,0,0,1,4.71,5.36A24.62,24.62,0,0,1,93.45,46.12Z" transform="translate(-5 -15.13)"></path><path d="M15.64,57.22a1.54,1.54,0,1,0,1.54,1.54A1.54,1.54,0,0,0,15.64,57.22Zm0,1.89a.35.35,0,1,1,.35-.35A.35.35,0,0,1,15.64,59.11Z" transform="translate(-5 -15.13)"></path></svg>