<svg xmlns="http://www.w3.org/2000/svg" xmlns:xlink="http://www.w3.org/1999/xlink" version="1.1" x="0px" y="0px" viewBox="0 0 100 100" style="enable-background:new 0 0 100 100;" xml:space="preserve"><g><path d="M50,44.3c2.2,0,4-1.8,4-4s-1.8-4-4-4s-4,1.8-4,4S47.8,44.3,50,44.3z M50,38.7c0.9,0,1.7,0.7,1.7,1.7S50.9,42,50,42   s-1.7-0.7-1.7-1.7S49.1,38.7,50,38.7z"></path><path d="M80.9,73.6c5.9-6.8,9.3-15.6,9-25.1c-0.3-7.2-2.7-13.8-6.7-19.3l-1.8-6.1c-2.8-9-9.7-16-18.5-18.7   c-1.1-0.3-2.2-0.6-3.3-0.9c-0.1-0.1-0.3-0.1-0.5-0.1c-3-0.6-6.3-0.9-9.7-0.9C26,2.5,19.5,21.6,19.5,21.7l-2.9,8.2   c-4.5,6.4-6.7,14-6.4,21.8c0.3,8.1,3.4,15.7,8.7,21.9c-0.1,0.1-0.2,0.2-0.2,0.3c-1.5,2.6-2.2,5.1-2.2,8.1v8.5c0,3.9,3.1,7,7,7h25.9   h1.3h25.9c3.9,0,7-3.1,7-7V82c0-2.9-0.3-5.2-1.9-8C81.3,73.9,81.1,73.7,80.9,73.6z M18.4,69.3l0.9-1.2c0.2,0.1,0.4,0.3,0.7,0.5   c0,0.1,0.1,0.2,0.1,0.3c1.1,2.6,5.7,2.9,8.3,2.9c0,0,0,0,0.1,0l-2.3,5.7c-0.6-0.5-1.2-1-1.8-1.5C22.1,74,20.1,71.7,18.4,69.3z    M13.8,59.8l6.3-7.3c0.3,0.4,0.5,0.9,0.8,1.3c-0.1,0-0.1,0-0.2,0c-1,0-1.9,0.5-2.3,1.4c-0.2,0.3-0.2,0.7-0.2,1   c-0.1,0.2-0.2,0.4-0.3,0.7c-0.2,0.9,0,1.8,0.7,2.5c0.2,0.2,0.7,0.6,3,1.8l-0.7,1c-0.9,0.1-1.6,0.6-2,1.4c-0.2,0.3-0.2,0.7-0.2,1   c-0.1,0.2-0.2,0.4-0.3,0.7c0,0.1,0,0.2-0.1,0.3l-1.2,1.6C15.7,64.9,14.6,62.4,13.8,59.8z M39.8,6.1l-1.6,8.3   c-2.7,0.8-5.3,1.8-7.7,3.2l3.6-9.1C35.7,7.5,37.6,6.7,39.8,6.1z M49,4.8v7.9c-0.2,0-0.3,0-0.5,0c-2.7,0.1-5.3,0.5-7.8,1l1.6-8.3   C44.3,5.1,46.5,4.8,49,4.8z M58.1,5.6l1.5,8.1c-2.7-0.6-5.4-1-8.3-1V4.8C53.7,4.9,55.9,5.2,58.1,5.6z M87.5,48.6   c0.1,2.9-0.2,5.8-0.8,8.6L82,51.7c0.1-0.9-0.2-1.8-0.6-2.6c0.7-1.8,1.3-3.7,1.6-5.6l4.5,4.4l0,0C87.5,48.2,87.5,48.4,87.5,48.6z    M82.7,67.2l-0.8-1.1c0.3-0.3,0.5-0.5,0.5-0.6c0.4-0.5,0.5-1.2,0.4-1.8c-0.1-0.6-0.5-1.2-1.1-1.5c-0.6-0.4-2.5-1.4-4.2-1.8l-1-1.4   c0.7-0.7,1.3-1.3,1.6-1.8c0,0,0.4-0.7,2.3-2.2c0.3-0.2,0.5-0.5,0.7-0.8l4.9,5.7C85.2,62.4,84.1,64.9,82.7,67.2z M69.7,68.4   c-1.1,0.4-2.2,0.5-3.2,0.5c-3.3,0-5.6-1.8-5.6-1.8C58.1,68,55,68.3,52,68.3c-7.4,0-14-1.7-14-1.7c-2,2.1-6,2.9-9.5,2.9   c-3.1,0-5.8-0.6-6.2-1.5c-0.1-0.3-0.1-0.6-0.1-0.8c-0.6-0.3-1.3-0.7-1.5-0.9c0.1-0.2,0.1-0.4,0.1-0.5c0.3-0.2,0.7-0.3,0.7-0.3   S21,64.9,21,64.6c0.1,0,0.2,0.1,0.3,0.1c0.1,0,0.2,0,0.3-0.1c0.7,0.3,1.6,0.9,2.2,1.3c0.8-0.3,1.6-0.6,2-1.1c0.9-1.3,1.7-3,0-3.6   c-0.9-0.3-1.9-1-2.7-1.8c-0.6-0.3-2.6-1.2-3-1.6C19.8,57.3,21,57,21,57s-0.8-1-0.3-1h0.1c0.3,0.1,0.9,0.4,1.4,0.7s1.1,0.5,1.8,0.6   c0.5,0,1,0.1,1.5,0.1c1.1,0,2.3-0.3,3.2-2c1-1.9,3.6-3.8,6.4-4.8c0.2,0,0.3-0.1,0.5-0.2c1.1-0.4,2.3-0.6,3.3-0.6   c0.5,0,1.1,0.1,1.5,0.2c1.9,0.5,5.6,1,9.6,1c3.9,0,8-0.5,10.6-2.3c2.6-1.7,5-2.4,6.7-2.7h0.1c0.1,0,0.3,0,0.4-0.1   c0.5-0.1,1-0.1,1.3-0.1c0.5,0,0.8,0,0.8,0s2.5,0.2,5.9,1.7c1.2,0.6,2.1,1.1,2.7,1.7c-0.5,0.4-1.4,1.3,0.1,1.9   c0.4,0.2,0.8,0.2,1,0.1c0,0.6-0.3,1.3-0.8,1.7c-1,0.8-2.3,2-2.8,2.9c-0.6,1-3.3,3-4.7,4c-1.5,0.3-4.3,0.8-5.6,0.2   c0,0,3.2,1.4,5.5,1.6c1,0.6,2.8,0.8,4,0.8c0.4,0,0.7,0,1,0c0.1,0,0.1,0,0.2,0c1.5,0,4.2,1.6,4.2,1.6s-0.8,1.1-2.2,1.1   c-0.1,0-0.2,0-0.3,0c-0.1,0-0.1,0-0.2,0C76.4,65.3,74.4,66.8,69.7,68.4z M24.3,63c-0.1,0.1-0.1,0.2-0.2,0.3   c-0.3-0.2-0.6-0.3-0.8-0.5l0.2-0.3C23.8,62.7,24,62.9,24.3,63z M19,41.7l20.2-1.9L20.9,49C19.9,46.7,19.3,44.3,19,41.7z M38.1,16.8   L45.2,34c-0.2,0.1-0.4,0.3-0.6,0.4L29.8,20.6C32.4,19,35.2,17.7,38.1,16.8z M79.7,47.3c-0.8-0.6-1.7-1.1-2.8-1.6   c-3.5-1.6-6.1-1.9-6.7-1.9c-0.2,0-0.5-0.1-1.1-0.1c-0.4,0-1,0-1.6,0.1l-6.9-3.7L80.9,42C80.7,43.8,80.3,45.5,79.7,47.3z M50,34.8   c3.2,0,5.7,2.5,5.7,5.5s-2.6,5.5-5.7,5.5c-3.2,0-5.7-2.5-5.7-5.5S46.8,34.8,50,34.8z M43.5,44.8l-2,3.2c-0.2,0-0.4-0.1-0.5-0.1   c-0.6-0.2-1.4-0.2-2.1-0.2h-0.1l4.1-3.7C43,44.2,43.2,44.5,43.5,44.8z M45.1,46.5c0.1,0.1,0.2,0.2,0.4,0.3L45,48.5   c-0.4,0-0.7-0.1-1-0.1L45.1,46.5z M47.6,47.8c0.4,0.1,0.8,0.2,1.1,0.2v0.8c-0.5,0-1,0-1.4-0.1L47.6,47.8z M51.1,48.1   c0.5-0.1,0.9-0.2,1.4-0.3l0.3,1c-0.5,0-1.1,0.1-1.6,0.1L51.1,48.1z M55,48.4l-0.5-1.7c0.2-0.1,0.4-0.3,0.6-0.4l1.1,1.8   C55.8,48.3,55.4,48.4,55,48.4z M58.5,47.4l-1.8-2.8c0.7-1,1.1-2.1,1.3-3.3l1.5,0.8c-0.7,0.1-1.3,0.3-1.6,0.7   c-0.2,0.3-0.3,0.6-0.2,0.9c0,0.2,0.1,0.3,0.2,0.4l2.3,2.4c-0.3,0.2-0.6,0.3-0.8,0.5C59.1,47.1,58.8,47.3,58.5,47.4z M61.7,45.5   L60,43.7c0.6,0.1,2.1,0.5,3.7,1C63.1,44.9,62.4,45.2,61.7,45.5z M81.1,38.6c0,0.3,0,0.7,0,1L61,37.8l19.3-5.6   C80.9,34.2,81.1,36.4,81.1,38.6z M51.3,32.6V15c2.9,0.1,5.8,0.5,8.5,1.1l-7,16.9C52.3,32.9,51.8,32.7,51.3,32.6z M49,32.6   c-0.6,0.1-1.2,0.2-1.7,0.4l-6.9-16.8c2.7-0.7,5.4-1.1,8.2-1.2c0.1,0,0.3,0,0.4,0V32.6z M18.9,38.6c0-2.6,0.2-4.7,0.8-6.7L39,37.5   l-20.1,1.9C18.9,39.2,18.9,38.9,18.9,38.6z M42,41c0,0.2,0,0.3,0.1,0.5l-7.7,6.9c-3.3,1.2-6.5,3.4-7.8,5.9C26.2,55,26,55,25.5,55   c-0.3,0-0.5,0-0.8-0.1l0,0c0,0,0,0,0-0.1c-1.1-1.3-2-2.6-2.7-3.9L42,41z M83.4,40.6c0-0.7,0.1-1.3,0.1-2c0-2-0.2-3.8-0.6-5.6   c2,3.4,3.5,7.3,4.2,11.3L83.4,40.6z M78.3,26.9c0,0,0,0.1,0.1,0.1c0.5,1,0.9,2,1.3,2.9L57,36.6c0-0.1-0.1-0.1-0.1-0.2l15-14.1   c0.2-0.2,0.3-0.4,0.3-0.6C74.5,23.3,76.5,25,78.3,26.9z M70.5,20.6C70.5,20.6,70.4,20.6,70.5,20.6l-15,14.1   c-0.2-0.2-0.4-0.3-0.6-0.5L62,16.8C65,17.7,67.9,19,70.5,20.6z M27.9,21.8c0.1,0.1,0.1,0.2,0.2,0.3l15.1,14.1c0,0,0,0.1-0.1,0.1   l-22.8-6.6c0.3-0.7,0.6-1.4,0.9-2.1c0.4-0.4,0.8-0.9,1.2-1.3C24.1,24.7,25.9,23.2,27.9,21.8z M16.9,33.6c-0.2,1.5-0.4,3.2-0.4,5   c0,0.6,0,1.2,0.1,1.8L13,44C13.7,40.4,15,36.9,16.9,33.6z M12.5,51.6c-0.1-1.3,0-2.6,0.1-3.9l0,0l4.3-4.3c0.4,2.4,1,4.7,2,6.9   L13.1,57C12.8,55.3,12.5,53.5,12.5,51.6z M31,71.6c2.3-0.2,5.3-0.9,7.5-2.6c0.2,0,0.4,0.1,0.6,0.1l-3,13.7c-2.8-1-5.5-2.4-8-4   L31,71.6z M41.4,69.6c2,0.3,4.5,0.7,7.3,0.9v14.8c-3.6-0.1-7.1-0.6-10.4-1.6L41.4,69.6z M51.1,85.2V70.5c0.3,0,0.6,0,0.9,0   c2.5,0,4.8-0.2,6.9-0.6l3.4,13.3c-3.4,1.1-7.1,1.8-10.9,2C51.3,85.2,51.2,85.2,51.1,85.2z M64.5,82.5L61.3,70   c1.2,0.6,3,1.2,5.2,1.2c1.3,0,2.5-0.2,3.7-0.6L74,77C71.1,79.3,67.9,81.1,64.5,82.5z M75.7,75.5l-3.3-5.7c1.3-0.5,2.4-1,3.3-1.4   s1.9-0.9,2.2-0.9c0.2,0,0.3,0,0.5,0c0.6,0,1.1-0.1,1.6-0.3l1.4,1.9C79.8,71.5,77.9,73.7,75.7,75.5z M79.2,23.8l0.3,1   c-2.4-2.4-5.1-4.6-8-6.3c0,0,0,0,0-0.1l-2.8-8.7C73.6,13,77.3,17.9,79.2,23.8z M65.7,8L65.7,8l2.9,8.9c-2.1-1-4.3-1.9-6.5-2.5   l-1.5-8.2c0.6,0.1,1.1,0.3,1.7,0.5C63.4,7,64.6,7.5,65.7,8z M30.8,10.5l-3.4,8.6c0,0.1-0.1,0.2-0.1,0.3c-2.3,1.5-4.5,3.3-6.5,5.3   l0.8-2.3C21.6,22.4,23.9,15.7,30.8,10.5z M81.1,90.5c0,2.6-2.1,4.7-4.7,4.7H50.5h-1.3H23.4c-2.6,0-4.7-2.1-4.7-4.7V82   c0-2.5,0.5-4.5,1.7-6.7c0.8,0.8,1.6,1.6,2.5,2.3c7.4,6.4,16.8,9.8,26.8,9.8c0.6,0,1.2,0,1.7,0c11.1-0.4,21-5.1,27.9-12.3   c0,0,0,0,0,0.1c1.4,2.3,1.6,4.3,1.6,6.8v8.5H81.1z"></path><path d="M68.8,55c-0.1-0.4-0.2-0.7-0.4-1c0.1-0.2,0.1-0.5,0.1-0.8c0-1.1-0.7-2-1.7-2.3c-0.6-0.2-2.6-0.7-3.6-1.1   c-0.4-0.2-0.9-0.3-1.3-0.3c-1.4,0-2.6,0.9-3.3,2.4c-0.6,1.4-0.6,3.5,0.6,4.7c1.6,1.6,5.3,1.6,5.7,1.6c1.5,0,2.5-0.3,3.2-1   C68.7,56.7,68.9,55.8,68.8,55z M66.4,55.7c-0.2,0.2-0.8,0.3-1.6,0.3c-1.5,0-3.5-0.4-4.1-0.9c-0.8-0.8-0.1-3.2,1.1-3.2   c0.1,0,0.3,0,0.4,0.1c1.5,0.6,4,1.3,4,1.3s-1.9,0.4-1.5,1C65.1,54.8,67,55.1,66.4,55.7z"></path><path d="M73.9,50.1c0,0-1.7-0.8-2.3,0.8C71,52.6,74.1,52.8,73.9,50.1z"></path></g></svg>