<svg xmlns="http://www.w3.org/2000/svg" data-name="Layer 1" viewBox="0 0 90 56.44" x="0px" y="0px"><title>12</title><path d="M94.5,27.87a1.82,1.82,0,0,0-1.84-.33c-.56-.63-1.82-1.85-3-1.47C89.39,26,89,26,88.1,25.83l-1.16-.18A11.88,11.88,0,0,0,84.27,22a1,1,0,0,0-1.13-.11c-.19.11-.65.38-.67,2a8.61,8.61,0,0,0-2.69-1.7,1,1,0,0,0-1.15.26c-.19.22-.37.6-.13,1.49A8.09,8.09,0,0,0,75.73,23a1,1,0,0,0-1,.52c-.2.4-.12.89.28,1.56a23.72,23.72,0,0,0-2.88,1,7.47,7.47,0,0,1-2.48.39c-1.07.05-1.92.09-2.26.72a1.2,1.2,0,0,0,.12,1.22c.71,1.23,2.42,1.14,4.23,1.05a12,12,0,0,1,3.4.14c1.9.48,5.63,1.19,7.69,1.56a18.48,18.48,0,0,1-2.71,1.38A2.18,2.18,0,0,0,78.18,32a2.44,2.44,0,0,0-1.58,1.51h0a2,2,0,0,0-1.48-1.13,2.9,2.9,0,0,0-2.28,1.14l-1.65-.09a2.11,2.11,0,0,0-1.49-1.26,2.67,2.67,0,0,0-2.19,1L66.83,33a2.11,2.11,0,0,0-1.49-1.26,2.66,2.66,0,0,0-2.17.94l-.45,0a2.1,2.1,0,0,0-1.5-1.26,2.73,2.73,0,0,0-2.23,1h-.41a2.17,2.17,0,0,0-1.67-1,2.34,2.34,0,0,0-1.82,1c-.42,0-.82.06-1.21.1l-.18-.17a.6.6,0,0,0-.25-.39c-.21-.14-5.1-3.39-10-1.09-3.46,1.63-4.83,5.65-5.15,6.74a2.81,2.81,0,0,0-1.09,1.75l-.38.22a1.91,1.91,0,0,0-1.56-.09,2.35,2.35,0,0,0-1.24,1.53l-.25.12A2,2,0,0,0,32.07,41a2.31,2.31,0,0,0-1.27,1.54,13.5,13.5,0,0,1-4,1c-.48,0-.92,0-1.35-.08a6.24,6.24,0,0,0-3,.22,6.53,6.53,0,0,1-2.31-.72,3.12,3.12,0,0,0-2.92.15,3.39,3.39,0,0,1-.47.18c-.54.08-4.48,1.05-5.36,1.27a5.46,5.46,0,0,1-2.14-.92c-.82-.71-2.24-.1-3.22.77s-1.27,1.74-.84,2.37a1.84,1.84,0,0,0,.64.57,3,3,0,0,0,.91,2.86.6.6,0,0,0,1-.3,6.24,6.24,0,0,1,.89-1.94,4.52,4.52,0,0,1,.55.21l.51.21a1.25,1.25,0,0,1,.33.16.86.86,0,0,0,.23.13,4.48,4.48,0,0,0,2,2.82.61.61,0,0,0,.95-.48c0-.48.08-1.7.18-2.5h.8A3.26,3.26,0,0,0,15,51a.6.6,0,0,0,.93-.15l1.18-2.07a1.65,1.65,0,0,1,.29.18l.06,0c-.78,1.21-2.86,4.38-4.13,5.87l-.24-.2a.6.6,0,0,0-1,.59l.18.83c-.2.26-.39.53-.58.8l-.25-.2a.6.6,0,0,0-1,.59l.22,1-.33.45-.54-.44a.6.6,0,0,0-1,.59l.27,1.27-.22.2-.57-.9a.6.6,0,0,0-1.11.25l-.23,2a3.88,3.88,0,0,0-1.8,3.79,2.45,2.45,0,0,0,1,1.68c1,.71,2.69.86,4.84.44a16.46,16.46,0,0,0,4.43-1.75,7.61,7.61,0,0,1,1.93-.84,29.79,29.79,0,0,0,3.45-1,.6.6,0,0,0,.24.11c.81.16,8,1.57,9.71,1.45l.93,0a25.5,25.5,0,0,0,7-1.09,10.05,10.05,0,0,1,3.29-.37l1.17,0c1.45.05,3.38.13,5,.27a4.84,4.84,0,0,0-.59,1.14,10.68,10.68,0,0,0-.45,5.57c-.92.23-2,.79-2.11,1.88a3.1,3.1,0,0,0,1.15,2.58.6.6,0,0,0,1-.36c.07-.31.17-.76.26-1.09l.58.08a1.12,1.12,0,0,0,0,.31,2.35,2.35,0,0,1,0,.38,2.67,2.67,0,0,0,1.25,2.65.6.6,0,0,0,1-.55,3.28,3.28,0,0,1,.2-1.58c.1-.08.27-.22.46-.4a1.56,1.56,0,0,0,.66,1c.21.13.16.86,0,1.4a.6.6,0,0,0,1,.64,4.63,4.63,0,0,0,1.34-2.25l.6-1.27a7.14,7.14,0,0,1,1.18.58,4.67,4.67,0,0,0,2.68.89.71.71,0,0,0,.54-.51c.06-.2.17-.62-1-1.69-.64-.68-1.39-1.45-2-2A8.75,8.75,0,0,0,57.3,71c1.22-1,3.67-4,3.48-6.76a7.76,7.76,0,0,0-.6-2.25l7-1.52a2.86,2.86,0,0,0,.08.28,3,3,0,0,0,.21,3.71.6.6,0,0,0,1.05-.4,2.63,2.63,0,0,1,.41-1.46H69a2.09,2.09,0,0,0-.36,1.29,1.9,1.9,0,0,0,1,1.45.61.61,0,0,0,.89-.31,3.35,3.35,0,0,1,1.3-1.59,2.5,2.5,0,0,0,1.14,2.66.6.6,0,0,0,.62,0,.61.61,0,0,0,.26-.57,1.1,1.1,0,0,1,.68-1.1l.11-.07a30.88,30.88,0,0,0,2.85-2.61,1.79,1.79,0,0,1,.54-.37,3.15,3.15,0,0,0,1.84-3,8.17,8.17,0,0,1,.65-2.39l.11-.29h0s3.39-4,5-5.43l.59-.5c2.36-2,7.88-6.56,7-15.21l1.33-2.79,0-.06C94.9,30.62,95.39,28.75,94.5,27.87Zm-19.11.64a13,13,0,0,0-3.76-.18c-1.43.07-2.78.14-3.12-.45v0a8.72,8.72,0,0,1,1.16-.1,8.46,8.46,0,0,0,2.9-.49,22.9,22.9,0,0,1,3.53-1.18.6.6,0,0,0,.33-1,4.82,4.82,0,0,1-.55-.86A10.76,10.76,0,0,1,79,25.48a.6.6,0,0,0,.33.07l.3,0a.61.61,0,0,0,.51-.86,5.8,5.8,0,0,1-.46-1.28,11.39,11.39,0,0,1,2.84,2.09.76.76,0,0,0,.37.16l.21,0a.6.6,0,0,0,.7-.66,7.45,7.45,0,0,1,0-1.87A13.26,13.26,0,0,1,86,26.45a.6.6,0,0,0,.26.26,6.82,6.82,0,0,0,1.67.31l.3,0-.37.32a44.54,44.54,0,0,1-3.6,2.88C83.23,30.09,77.77,29.11,75.39,28.5ZM44,32a8.87,8.87,0,0,1,7.2.18,3.41,3.41,0,0,0-.84,1.06c-.55.15-1.1.31-1.64.48a2.2,2.2,0,0,0-2-.38A2.33,2.33,0,0,0,45.4,35l-1.35.6a2,2,0,0,0-1.79-.22,2.54,2.54,0,0,0-1.32,1.8l-.81.46a2.58,2.58,0,0,0-.47-.16C40.14,36.09,41.43,33.22,44,32ZM7,48.31a2.2,2.2,0,0,1,0-.65l.32.05A6.64,6.64,0,0,0,7,48.31Zm4.46.34.63-.12c0,.37-.07.77-.1,1.14A3,3,0,0,1,11.47,48.66Zm3.94.61a3.22,3.22,0,0,1-.07-.75l.48,0Zm78-18L92,34.14a.6.6,0,0,0-.06.33c.92,8.12-4.3,12.46-6.53,14.32l-.63.53c-1,.89-2.53,2.58-3.66,3.86a7.24,7.24,0,0,0,0-1,7,7,0,0,0-2.35-4.53.6.6,0,0,0-.75.95,5.86,5.86,0,0,1,1.34,6.89,9.4,9.4,0,0,0-.73,2.72c-.14,1.42-.64,1.69-1.21,2a2.79,2.79,0,0,0-.9.67,28.45,28.45,0,0,1-2.63,2.4,2.42,2.42,0,0,0-.89.77,6.47,6.47,0,0,1,0-.78,4.55,4.55,0,0,0,0-.85,1.35,1.35,0,0,1,1.26-.82.6.6,0,0,0,.12-1.2A2.56,2.56,0,0,0,71.9,62l-.28.17a4,4,0,0,0-1.83,1.56,1.5,1.5,0,0,1,.47-.84.6.6,0,0,0,.2-.39,3.25,3.25,0,0,1,1.62-2.14.6.6,0,0,0-.57-1.07,5,5,0,0,0-1.92,2l-1,.19a.61.61,0,0,0-.22.09,1.57,1.57,0,0,0-.23.18,2.39,2.39,0,0,1,.3-.47.61.61,0,0,0,.08-.65,1.58,1.58,0,0,1-.05-1.31,2.52,2.52,0,0,1,1.46-1.33c.91-.35,3.85.31,5.48.82a.6.6,0,1,0,.36-1.16c-.35-.11-1.36-.41-2.5-.64-.43-1.67-2.32-8.92-2.83-11.17a3.09,3.09,0,0,1,.84-3.19l.09-.09c1.92-2.2,6.91,1.76,7,1.8a.6.6,0,0,0,.76-.94c-.24-.2-5.88-4.73-8.6-1.7A4.3,4.3,0,0,0,69.19,46c.48,2.08,2.1,8.35,2.7,10.67a5.56,5.56,0,0,0-2.46.08,3.7,3.7,0,0,0-2.15,2,2.94,2.94,0,0,0-.13.42l-7.5,1.63a10.92,10.92,0,0,0-2.93-3.54,6.93,6.93,0,0,0-5.54-1.39c-.46-.18-1.93-.84-2-1.9A.6.6,0,0,0,48,54.1c.14,2.07,2.86,3,3,3a.61.61,0,0,0,.31,0A5.67,5.67,0,0,1,56,58.27a10,10,0,0,1,2.74,3.42.6.6,0,0,0,.11.22,7.21,7.21,0,0,1,.73,2.39c.16,2.34-2.17,5-3,5.75a8.36,8.36,0,0,1-1.26.82c-.51.28-.87.49-.85,1a.69.69,0,0,0,.42.59,22.52,22.52,0,0,1,2,2,2.16,2.16,0,0,1-.4-.23,10.39,10.39,0,0,0-2-1,.6.6,0,0,0-.76.31l-.88,1.87a.6.6,0,0,0,0,.11,1.37,1.37,0,0,0-.48-.5c-.23-.15-.23-1-.07-1.61A.6.6,0,0,0,51.07,73a4.9,4.9,0,0,1-1.38,1.58.6.6,0,0,0-.16.17,2.58,2.58,0,0,0-.25.54c0-.08,0-.15,0-.24a3.2,3.2,0,0,0,0-.58,6,6,0,0,1,1.33-1.91.6.6,0,0,0-.88-.83,10.8,10.8,0,0,0-1.11,1.39l-1.44-.19a.6.6,0,0,0-.63.35,3.88,3.88,0,0,0-.15.44,1.48,1.48,0,0,1-.05-.55c.05-.56,1.17-.86,1.7-.92a.6.6,0,0,0,.52-.78A9.34,9.34,0,0,1,48.85,66a3.9,3.9,0,0,1,4-2.38.6.6,0,0,0,.11-1.2,5.55,5.55,0,0,0-3.6,1,.6.6,0,0,0-.28-.1c-1.82-.19-4.09-.27-5.75-.33l-1.16,0a11.27,11.27,0,0,0-3.68.42,24.09,24.09,0,0,1-6.73,1l-1,0a58.43,58.43,0,0,1-7.6-1.09,34.4,34.4,0,0,1,7.07-1.75.6.6,0,0,0,0-1.21h0c-1.92,0-6.33,1.44-9.55,2.49-1.54.5-3,1-3.39,1a7.84,7.84,0,0,0-2.35,1,15.49,15.49,0,0,1-4.1,1.64c-1.8.36-3.18.27-3.91-.24a1.24,1.24,0,0,1-.53-.87c-.16-1.08.25-1.84,1.53-2.8l1.16-.8h0a7.74,7.74,0,0,0,1.12-1v0h0l.67-.76h0c.28-.35.57-.73.9-1.21h0l.48-.69h0c.33-.48.71-1,1.08-1.49l.53-.62A55,55,0,0,0,18,50.36a3.12,3.12,0,0,0,.56,1.48,41.93,41.93,0,0,1-3.29,4.58,19.94,19.94,0,0,0-2.09,2.9,5.81,5.81,0,0,0-.37,1.86l-1.38,1.15a11.53,11.53,0,0,1-1.67,1A.6.6,0,0,0,10,64.49a8.34,8.34,0,0,0,2-.11l.15,0,.79-.37c.84-.39,1.8-.84,2.62-1.28h0L16.68,62h0l0,0a3.53,3.53,0,0,0,.41-.34c.26-.25.54-.57.82-.88l1.11-1.19h0l.2-.22.06,0,.12,0L20.89,59h0a8.62,8.62,0,0,0,.94-.26l.22-.07a.6.6,0,0,0,.34-.19l.13-.06,1.11-.72h0a6.58,6.58,0,0,0,3.54-6.28l.91.13a16.1,16.1,0,0,1,4.19,1,.6.6,0,1,0,.49-1.11,17.19,17.19,0,0,0-4.51-1l-1.4-.21a.6.6,0,0,0-.35.05l-.1,0-1.94-.43-.15-.07a1.44,1.44,0,0,0-.6-.37h0l-2-.74h0a5,5,0,0,0-1.55-.2H20l-1.37-.13a1.3,1.3,0,0,1-.58-.26,2.75,2.75,0,0,0-1.15-.5h-.08L15,47.28H15a.6.6,0,0,0-.26,0c-.25,0-.56,0-.86,0a9.53,9.53,0,0,0-1,0,.6.6,0,0,0-.43-.08l-1.31.25a.58.58,0,0,0-.13.05.59.59,0,0,0-.29-.06h-.08a2.79,2.79,0,0,0-.51-.25L9.64,47a4.6,4.6,0,0,0-1.13-.36h0l-1.79-.29a1.06,1.06,0,0,1-.49-.28,2.87,2.87,0,0,1,1.36-1.34c.53-.29.83-.28.88-.24a6.91,6.91,0,0,0,2.84,1.22.61.61,0,0,0,.25,0c1.95-.48,5-1.22,5.38-1.28a3.38,3.38,0,0,0,.76-.26c.58-.25,1.3-.55,1.8-.24a8,8,0,0,0,3,.91.61.61,0,0,0,.3,0,5,5,0,0,1,2.52-.19c.45,0,.91.08,1.44.09a16.42,16.42,0,0,0,4.77-1.19.6.6,0,0,0,.37-.41c.15-.55.37-.92.62-1s.66.09.94.28a.61.61,0,0,0,.59,0l.79-.37a.61.61,0,0,0,.32-.39,1.47,1.47,0,0,1,.61-1,1,1,0,0,1,.81.18.61.61,0,0,0,.6,0l.93-.54a.6.6,0,0,0,.28-.4A1.78,1.78,0,0,1,39,38.65a1,1,0,0,1,.82.18.6.6,0,0,0,.61,0l1.3-.74a.6.6,0,0,0,.3-.41,1.69,1.69,0,0,1,.66-1.21c.28-.11.68.09,1,.29a.6.6,0,0,0,.6,0c.61-.29,1.23-.57,1.87-.83a.6.6,0,0,0,.35-.41c.14-.58.39-1,.65-1.08s.63.05,1.1.4a.6.6,0,0,0,.55.09c.7-.23,1.41-.44,2.12-.62a.6.6,0,0,0,.4-.33c.28-.59.64-1,.93-1s.59.18,1,.6a.61.61,0,0,0,.54.21c.54-.07,1.12-.12,1.71-.15a.6.6,0,0,0,.47-.26c.34-.49.7-.77,1-.77s.56.27.87.73a.6.6,0,0,0,.49.28l1,0a.61.61,0,0,0,.49-.21c.39-.46.95-.9,1.33-.84s.61.57.73.87a.6.6,0,0,0,.51.37l1.09.09a.6.6,0,0,0,.5-.2c.46-.52,1-.83,1.28-.78s.6.57.73.87a.61.61,0,0,0,.5.37l1.31.12a.6.6,0,0,0,.51-.21c.47-.54,1-.85,1.3-.8s.61.58.73.88a.6.6,0,0,0,.52.37c.77.05,1.56.1,2.33.12a.6.6,0,0,0,.5-.23c.39-.5,1-1,1.38-.93s.56.46.71.8a.61.61,0,0,0,.58.36h.15l.68-.06a.61.61,0,0,0,.5-.39c.23-.62.55-1,.85-1.1s.64.15,1.07.59a.61.61,0,0,0,.64.15,28.75,28.75,0,0,0,8.5-5.58,12.16,12.16,0,0,1,1.29-1.05c.47-.23,1.49.64,2,1.35a.61.61,0,0,0,.69.2c.58-.21.89-.18,1-.08S93.87,29.91,93.4,31.23ZM19.54,49.5c-.12.27-.23.55-.34.8a4.77,4.77,0,0,1-.06-.84Zm1.37.09a10,10,0,0,0,.43,2.78.6.6,0,0,0,1.05.12l1.29-1.82.08,0,0,.32a9.76,9.76,0,0,0,.31,2.19.6.6,0,0,0,1,.18l.9-.95a5.27,5.27,0,0,1-2.66,4l-1-.49a.6.6,0,0,0-.88.5l-.08,1.1-.43.12-1.15-1.09a.6.6,0,0,0-1,.4l-.08,1.19h0a.8.8,0,0,0-.32.23l-1.09-.22a.6.6,0,0,0-.71.72l.25,1.18-.15.17-.28-1.09A.6.6,0,0,0,15.36,59a4,4,0,0,0-.84,2.85c-.48.24-1,.49-1.48.72l.75-.63a.61.61,0,0,0,.22-.49,4.69,4.69,0,0,1,.28-1.68,29.55,29.55,0,0,1,1.92-2.6,29,29,0,0,0,3.5-5,.6.6,0,0,0,.15-.23s.48-1.33,1-2.36Zm1.23.4.43.16-.37.52C22.17,50.43,22.15,50.2,22.14,50ZM25,51.07l.54.12-.48.51C25,51.47,25,51.25,25,51.07Z" transform="translate(-5 -21.78)"></path><path d="M22.5,45.69s1.76,1.87,3.13.3C25.63,46,24.57,44.43,22.5,45.69Z" transform="translate(-5 -21.78)"></path><path d="M44.9,44.48c-1-.22-2.88,1-3.43,1.41a.6.6,0,1,0,.7,1,7,7,0,0,1,2.43-1.22.6.6,0,0,0,1-.72A1,1,0,0,0,44.9,44.48Z" transform="translate(-5 -21.78)"></path><path d="M52.06,41.9c-.81-.17-2.15.7-2.69,1.08a.6.6,0,0,0,.7,1,5.92,5.92,0,0,1,1.68-.88.6.6,0,0,0,.91-.77A.9.9,0,0,0,52.06,41.9Z" transform="translate(-5 -21.78)"></path><path d="M58.09,40.52c-.79-.22-2.19.57-2.75.92a.6.6,0,1,0,.64,1,5.93,5.93,0,0,1,1.73-.78.6.6,0,0,0,1-.72A.9.9,0,0,0,58.09,40.52Z" transform="translate(-5 -21.78)"></path><path d="M63.18,39.26a3.4,3.4,0,0,0-2.14.3.6.6,0,0,0,.45,1.12,4.73,4.73,0,0,1,1.16-.31.6.6,0,0,0,1-.65A.81.81,0,0,0,63.18,39.26Z" transform="translate(-5 -21.78)"></path><path d="M68.4,38.45a3.41,3.41,0,0,0-2.14.3.6.6,0,0,0,.45,1.12,4.73,4.73,0,0,1,1.16-.31.6.6,0,0,0,1-.65A.81.81,0,0,0,68.4,38.45Z" transform="translate(-5 -21.78)"></path></svg>