<svg xmlns="http://www.w3.org/2000/svg" xmlns:xlink="http://www.w3.org/1999/xlink" version="1.1" x="0px" y="0px" viewBox="0 0 100 100" style="enable-background:new 0 0 100 100;" xml:space="preserve"><g><path d="M31.2,37.8c0.7,0.3,2.9,1.3,4.2,1.6l0.7,1.8c-0.2,2.7,0.2,5,0.2,5.1s0,0.1,0,0.2C39,54.3,44.5,58,46.3,59   c0.1,0.4,0.3,0.9,0.6,1.4c0,0,0,0.1,0.1,0.1c-0.3,0.2-0.8,0.6-1,1.2c-0.3,1,0.2,2,1.1,2.5c0.5,0.2,1,0.4,1.6,0.3   c0,0-0.6-0.7-0.8-1.5l0,0c0,0,0-0.1,0-0.2c0-0.1,0-0.2-0.1-0.2l0,0c0-0.4,0.1-0.9,1-1c0,0-0.1,0.6,0.1,1.3l0,0   c0.1,0.6,0.6,1.2,1.2,1.5c0.5,0.2,1,0.4,1.6,0.3c0,0-1.8-2.4-0.4-3c0.8-0.4,0.4-0.7,0-0.9c0.1-0.2,0.2-0.4,0.4-0.8   c0.9-0.3,2-0.5,2.8-0.5c1,0,4.6,0.1,6.4,0.3c0.1,0,0.2,0,0.3,0c1.5,1.2,3.6,3.4,5.3,5.2c2.9,3,3.2,3.3,3.9,3.3c0.4,0,0.8-0.2,1-0.5   c0.5-0.6,0.4-1.4,0.3-1.9v-0.1c0.6-0.8,0.1-1.9-0.2-2.4c-0.7-1.4-4.9-5.5-7.5-7.9c0.3-0.2,0.6-0.4,0.8-0.8c0.4-0.7,0-1.5-0.4-2   c-0.2-0.3-0.7-0.8-2.4-2.7c-1.2-1.4-2.6-2.9-3.5-3.9c-0.1-0.2-0.3-0.3-0.4-0.4l0,0c-1.2-1.7-5.6-5.5-8.6-6.9   c-0.4-0.2-0.4-0.6-0.4-0.7c0.1-2.4-1.1-4.4-1.2-4.5c0,0,0,0,0-0.1c-3.7-5-8.5-3.5-10.5-2c-0.9,0.7-1.3,1.4-1.5,1.8   c-1.6,0.6-4.1,2.1-5,2.6c-0.3,0.2-0.5,0.6-0.5,1C30.6,37.3,30.8,37.6,31.2,37.8z M69.7,64.3L69.7,64.3c-0.1,0.1-0.2,0.3-0.2,0.4   c-0.4-0.4-0.8-0.9-1.3-1.3c-1.7-1.8-3.9-4-5.4-5.4c-0.7-0.7-1.9-1.6-3-2.5c0.6,0.1,1.1,0.1,1.5,0.2C64.5,58.8,69.2,63.3,69.7,64.3z    M57.2,48.5c0.2,0,0.3-0.1,0.5-0.2c0.9,1,1.9,2.2,2.9,3.2c0.7,0.8,1.6,1.7,1.9,2.2c-0.2,0-0.5,0-0.8,0c-0.4,0-9.5-1-13.8-3   c-0.6-0.2-1-0.5-1.4-0.9c0.6,0.1,1.2,0.1,1.8-0.1c1,0.5,2.3,0.7,3.4-0.1c0.9,0.3,2,0.3,3-0.5c0.5,0.1,1.2,0.2,1.8-0.2   C56.8,48.9,57.1,48.7,57.2,48.5z M38.8,33.3c0.4-0.3,4.2-2.9,7.5,1.5c0.1,0.2,0.9,1.6,0.9,3.2c0,0.7,0.3,2.1,1.7,2.7   c2.4,1.1,5.9,4,7.3,5.7c-0.3,0.1-0.5,0.4-0.6,0.7c-0.2,0-0.4-0.1-0.6-0.1c-0.4-0.2-0.9-0.1-1.2,0.3c-0.6,0.7-1.1,0.5-1.4,0.3   c-0.2-0.2-0.5-0.3-0.8-0.2c-0.3,0-0.6,0.2-0.7,0.4c-0.5,0.7-1.5,0.1-1.7,0c-0.4-0.3-1-0.3-1.4,0.1c-0.2,0-0.8,0.1-2.7-0.8   c-0.2-0.9-0.2-1.8-0.2-2.2c0.1-0.6-0.4-1.1-1-1.2c-0.6-0.1-1.1,0.4-1.2,1c-0.2,2.8,0.8,6.5,4.5,8.1c2.1,1,5.2,1.7,8,2.2   c0.1,0.1,0.2,0.2,0.3,0.2c0,0,1.6,1.1,3.2,2.3c-1.6-0.1-3.2-0.1-3.9-0.1c-1.5,0-3.3,0.5-4,0.8c-0.3,0.1-0.6,0.3-0.7,0.6   c-0.1,0.3-0.2,0.6-0.3,0.7c-0.2,0-0.3,0.1-0.4,0.2c0,0-0.1,0-0.1-0.1c-0.2-0.2-0.6-0.7-0.6-0.9c0.1-0.3,0.1-0.6-0.1-0.8   c-0.1-0.3-0.4-0.4-0.7-0.5c-0.8-0.4-6.6-3.8-9.3-11.5c-0.1-0.4-0.4-2.5-0.2-4.7c0-0.2,0-0.4-0.1-0.5l-0.6-1.5   c0.7-0.3,1.5-0.7,2.1-1.6c0.3-0.4,0.3-0.8,0-1.2l-1.6-2.6C38.3,33.7,38.5,33.5,38.8,33.3z M36.6,35.4l0.9,1.4   c-0.5,0.4-1.2,0.5-1.4,0.5c-0.3,0-1.1-0.3-2.1-0.7C35.1,36.1,36,35.6,36.6,35.4z"></path><path d="M77.7,84.1L77.7,84.1l-0.1-36.9c0.1-0.3,0.1-0.5,0.1-0.7s0-0.4-0.1-0.6v-8.6c0-0.2-1.1-19.9-21-23.7c-0.1,0-0.2,0-0.3,0   l-3.7-2.7c0.4-0.9,0.7-1.9,0.7-3c0-3-1.7-5.3-3.8-5.3s-3.8,2.3-3.8,5.3c0,1.1,0.2,2.1,0.7,3l-3.5,2.8c-0.1,0-0.1,0-0.2,0   C22.9,17.5,21.8,37,21.8,37.2v37.7c0,0.1,0,0.2,0,0.3s0,0.2,0,0.3v8.3l-0.2-0.1l-2.3,7l0.2,0.4c0.4,0.6,4.2,6.3,29.9,6.3   s30.3-5.4,30.7-6l0.3-0.5L77.7,84.1z M56.8,88.4v-5.1c3.6,0.1,6.7,0.4,9.4,0.7v3.1C63.4,87.7,60.3,88.2,56.8,88.4z M31.2,49.8v21.5   c-0.2,0-0.4,0.1-0.6,0.1c-3.2,0.5-5.3,1-6.6,1.6V48.5C25.3,48.9,27.5,49.4,31.2,49.8z M24.9,46.5c0.9-0.3,2.7-0.7,6.3-1.1v2.3   C27.9,47.2,25.9,46.8,24.9,46.5z M75.4,77.6v6.3c-1.5-0.7-3.9-1.2-7.1-1.7v-2.9c0.1,0,0.3,0,0.4-0.1C72,78.7,74.1,78.1,75.4,77.6z    M43.8,80.3c1.9,0.1,3.8,0.1,5.8,0.1c1.7,0,3.3,0,5-0.1v0.8c-1.6,0-3.3-0.1-5-0.1c-2,0-3.9,0-5.7,0.1L43.8,80.3L43.8,80.3z    M41.7,81.2c-3,0.1-5.8,0.4-8.3,0.6v-2.3c2.5,0.3,5.3,0.5,8.3,0.6V81.2z M56.8,80.2c3.4-0.1,6.6-0.4,9.4-0.7v2.3   c-2.8-0.3-5.9-0.6-9.4-0.7C56.8,81.1,56.8,80.2,56.8,80.2z M68.3,77v-3.5c3.7,0.5,6,1.2,6.8,1.8C74.4,75.8,72,76.5,68.3,77z    M66.2,77.3c-2.6,0.3-5.8,0.6-9.4,0.7v-5.6c3.6,0.2,6.8,0.4,9.4,0.7V77.3z M54.6,78.1c-1.6,0-3.2,0.1-5,0.1c-2,0-4,0-5.8-0.1v-5.7   c1.8-0.1,3.8-0.1,5.8-0.1c1.7,0,3.4,0,5,0.1V78.1z M41.7,78c-3.1-0.1-5.9-0.4-8.3-0.7v-4.2c2.4-0.3,5.2-0.5,8.3-0.7V78z M31.2,77.1   c-3.8-0.6-6.3-1.2-7.1-1.8c0.8-0.6,3.2-1.3,7.1-1.8V77.1z M30.6,79.2c0.2,0,0.4,0.1,0.6,0.1v2.8c-3.1,0.4-5.6,1-7.2,1.6v-6.1   C25.3,78.2,27.4,78.7,30.6,79.2z M31.2,84.3v2.4c-1.7-0.4-3.4-0.8-5.1-1.4C27.4,84.9,29.1,84.6,31.2,84.3z M33.4,84   c2.5-0.3,5.3-0.5,8.3-0.6v5c-2.7-0.3-5.5-0.6-8.3-1.2V84z M43.8,83.3c1.9-0.1,3.8-0.1,5.7-0.1c1.7,0,3.4,0,5,0.1v5.3   c-3.3,0.2-6.9,0.2-10.8-0.1L43.8,83.3L43.8,83.3z M68.3,84.3c2.2,0.3,4,0.7,5.2,1.1c-1.4,0.4-3.1,0.8-5.2,1.3V84.3z M75.4,37.2v7.1   c-1.4-0.5-3.6-0.9-7.1-1.3v-9.4c0,0,0,0,0-0.1c-0.5-9.9-8.1-15.6-12.6-18l0,0c0.1,0.1,0.2,0.1,0.3,0.1   C74.4,19.1,75.4,36.5,75.4,37.2z M75,46.5c-0.9,0.4-2.9,0.9-6.6,1.3v-2.6C71.8,45.6,73.9,46.1,75,46.5z M49.4,4.7   C50.2,4.7,51,6,51,7.8c0,0.6-0.1,1.2-0.3,1.7c-0.8-0.4-1.8-0.4-2.7,0c-0.2-0.5-0.3-1.1-0.3-1.7C47.8,6,48.7,4.7,49.4,4.7z    M48.9,11.5c0.3-0.2,0.6-0.2,0.9,0l3.8,2.8c-0.8,0.3-2.1,0.6-3.9,0.6c-2,0-3.3-0.4-4.1-0.8L48.9,11.5z M43,15.7   c0.2,0,0.4-0.1,0.5-0.3c0,0,0.1,0,0.1,0.1C39.2,18,32.3,23.2,31.4,32c-0.1,0.6,0.4,1.1,1,1.2h0.1c0.6,0,1-0.4,1.1-1   c0.9-8.9,9-13.8,12.6-15.6c0.1,0,0.1,0,0.2,0c-0.4,0.6-0.8,1.4-1.2,2.3c-1.6,3.3-2.6,8.6-2.6,8.8c-0.1,0.6,0.3,1.2,0.9,1.3   c0.1,0,0.1,0,0.2,0c0.5,0,1-0.4,1.1-0.9c0-0.1,0.9-5.2,2.4-8.2c0.6-1.2,1.1-2.2,1.5-2.9c0.3,0,0.7,0,1.1,0c0,0,0,0,0.1,0   c0.4,0.7,1,1.8,1.6,3c2.7,5.3,3.2,11.2,3.2,18.4v1.5c0,0.6,0.5,1.1,1.1,1.1s1.1-0.5,1.1-1.1v-1.5c0-7.5-0.6-13.6-3.5-19.3   c-0.4-0.7-0.8-1.5-1.2-2.2c0.4-0.1,0.8-0.1,1.1-0.2c0.1,0.1,0.1,0.1,0.2,0.2c3.6,1.8,12.2,7,12.7,16.9v9.1   c-1.8-0.2-3.9-0.3-6.3-0.4c-0.6,0-1.1,0.4-1.1,1s0.4,1.1,1,1.1c2.4,0.1,4.5,0.3,6.4,0.4v3c-0.5,0-1.1,0.1-1.7,0.1s-1.1,0.6-1,1.2   c0,0.6,0.5,1,1.1,1h0.1c0.5,0,1-0.1,1.5-0.1v4.7c0,0.6,0.5,1.1,1.1,1.1s1.1-0.5,1.1-1.1V50c3.5-0.4,5.7-0.9,7.1-1.4V73   c-1.3-0.6-3.4-1.1-6.7-1.6c-0.1,0-0.2,0-0.4-0.1v-2.5c0-0.6-0.5-1.1-1.1-1.1s-1.1,0.5-1.1,1.1V71c-2.8-0.3-6-0.6-9.4-0.7V68   c0-0.6-0.5-1.1-1.1-1.1s-1.1,0.5-1.1,1.1v2.3c-1.6,0-3.3-0.1-5-0.1c-2,0-3.9,0-5.8,0.1v-6c0-0.6-0.5-1.1-1.1-1.1s-1.1,0.5-1.1,1.1   v6.1c-3,0.1-5.8,0.4-8.3,0.6V50c0.4,0,0.8,0.1,1.2,0.1h0.1c0.6,0,1-0.4,1.1-1c0-0.6-0.4-1.1-1-1.2c-0.5,0-0.9-0.1-1.3-0.1v-2.7   c0.2,0,0.5,0,0.7-0.1c0.6-0.1,1-0.6,1-1.2s-0.6-1-1.2-1c-0.2,0-0.3,0-0.5,0v-1.7c0-0.6-0.5-1.1-1.1-1.1s-1.1,0.5-1.1,1.1v2   c-3.7,0.4-5.9,0.9-7.2,1.4v-7.2C24,37.1,25,19.3,43,15.7z M49.6,95.3c-20.9,0-26.6-3.8-27.8-4.9l1.2-3.8   c17.6,5.9,34.1,4.5,44.2,2.6l0,0c0.2,0,0.3,0,0.4-0.1c4.3-0.9,7.3-1.8,8.8-2.3l1.6,3.7C76.6,91.7,70.3,95.3,49.6,95.3z"></path><circle cx="40.8" cy="35.2" r="0.9"></circle><path d="M37.4,57.4c-1.4-0.1-1.7,1.9-0.4,2.3l7.6,2.2c-0.1-0.8,0.4-1.3,0.7-1.6l-0.5-0.7L37.4,57.4z"></path><path d="M53.3,62c-0.1,0-0.3,0-0.4-0.1c-0.2,0.2-0.4,0.4-0.6,0.8c-0.2,0.5,0.1,1.2,0.3,1.6l10.2,3c0.8,0.2,1.7-0.4,1.6-1.3   c0-0.3-0.1-0.5-0.3-0.9L53.3,62z"></path></g></svg>