<svg xmlns="http://www.w3.org/2000/svg" xmlns:xlink="http://www.w3.org/1999/xlink" version="1.1" x="0px" y="0px" viewBox="0 0 100 100" style="enable-background:new 0 0 100 100;" xml:space="preserve"><g><path d="M95.9,33.8c-4.6-16.7-15.9-22.5-19-23.7c-1.1-1.5-3.5-2.4-8.1-3.2C64.1,6.1,57.6,5.7,50,5.7S35.8,6.1,31.1,6.9   c-4.6,0.7-7,1.7-8.1,3.2c-3.7,1.6-14.3,7.4-18.8,23.7c-2.7,9.9-2,20.7,2.1,30.3c4,9.4,10,17.3,17.9,23.7c1.3,1.1,2.8,1.9,4.4,2.5   c3.7,1.4,11.4,3.8,21.2,3.9h0.1H50h0.2h0.1c9.5-0.1,17.1-2.4,20.7-3.7c1.9-0.7,3.6-1.7,5.1-2.9c7.8-6.4,13.8-14.3,17.7-23.5   C97.9,54.5,98.6,43.7,95.9,33.8z M24.8,11.5c0.3-0.7,1.8-1.6,6.7-2.4C36,8.4,42.4,8,50,8c7.5,0,13.9,0.4,18.5,1.1   c4.4,0.7,6,1.6,6.5,2.2c0,0.1,0,0.1,0,0.2c0,0.6-2.5,2.5-6.5,3.1c-4.6,0.7-11,1.1-18.5,1.1s-14-0.3-18.6-1.1   c-3.2-0.5-6.2-2.1-6.7-2.8c0-0.1,0-0.1,0-0.2C24.7,11.6,24.8,11.6,24.8,11.5z M91.7,63.2c-3.8,8.9-9.5,16.5-17,22.6   c-1.3,1.1-2.8,1.9-4.5,2.6c-3.5,1.3-10.9,3.5-20.1,3.6H50l0,0h-0.1h-0.1c-9.5-0.1-16.9-2.4-20.5-3.7c-1.3-0.5-2.6-1.2-3.8-2.2   C17.8,79.9,12,72.3,8.2,63.3c-3.9-9.2-4.6-19.4-2-28.8C10,20.7,18.7,14.9,22.5,12.9c0.1,0.1,0.1,0.2,0.2,0.4   c1.1,1.5,4.8,3.2,8.2,3.8c4.7,0.8,11.3,1.2,18.9,1.2s14.2-0.4,18.9-1.2c3.5-0.6,7.2-2.2,8.2-4.3c3.7,1.8,12.7,7.6,16.6,21.8   C96.3,43.8,95.6,54.1,91.7,63.2z"></path><path d="M31.1,57.9c0,2.9,2.3,5.2,5.2,5.2s5.2-2.3,5.2-5.2s-2.3-5.2-5.2-5.2S31.1,55,31.1,57.9z M39.2,57.9c0,1.6-1.3,2.9-2.9,2.9   c-1.6,0-2.9-1.3-2.9-2.9c0-1.6,1.3-2.9,2.9-2.9S39.2,56.3,39.2,57.9z"></path><path d="M79.7,61.8c1.3-1.6,3-3.8,1-6c-0.6-0.6-1.2-1.1-1.8-1.6c-2-1.6-2.6-2.3-1.7-3.8c1.7-3,3.1-6.1,0.4-8.4   c-1.1-0.9,0.2-3.4,0.3-3.4c0.3-0.5,0.1-1.2-0.4-1.5s-1.2-0.2-1.5,0.3c-5.2,7.1-12.1,14.5-14,14.1c-0.4-0.1-0.8-0.2-1.2-0.4   c-0.3-4.7-3.1-7.1-5.3-9.1c-0.4-0.3-0.7-0.6-1-0.9c-2.1-1.9-2.6-5-2.7-5.1c-0.1-0.6-0.6-1-1.2-0.9c-5.2,0.3-11.6,9.8-12.3,10.8   c0,0.1-0.1,0.1-0.1,0.2c-0.8,0.4-1.6,0.9-2.4,1.4c-2.8,1.9-6.5,3.9-8.6,5.1c-1.1,0.6-1.7,1-2.1,1.2C23.5,54.6,23,58,23,59.5   c0,1.6,0.3,2.7,1,3.3l0.1,0.1c1,1,2.8,2.5,4.9,4.2c-2.8,3.1-2.1,7.4-2.1,7.6c0.1,0.6,0.6,1,1.3,1c3-0.3,8.4-2.8,9-3   c2.5,1.3,5.1,2.2,7.3,2.1c0.5,0,1-0.1,1.6-0.2c7.7,4.6,17.9,4,18.4,4c1.4-0.1,3.7,0.2,4.3,0.8c0.2,0.3,0.5,0.4,0.9,0.4   c0.3,0,0.5-0.1,0.7-0.3c0.5-0.4,0.6-1.1,0.2-1.6c-0.3-0.4-2.7-3.7-5-4.4c-0.5-0.2-1.1-0.3-1.6-0.4c-1.3-0.3-2.9-0.7-3.3-1.4   c-0.8-1-3-1.8-4.9-2.3c0.3-0.2,0.5-0.5,0.8-0.7c1.7,0,3.6,0.2,5.9,1.3l2.8,1.4c0.5,0.2,1,0.1,1.3-0.2s0.4-0.9,0.2-1.4   c-0.6-1-3.1-5.3-4.9-7.3c0.1-0.2,0.3-0.3,0.4-0.5c-0.3,0-0.3,0-0.2-0.1c0-0.1,0.5-0.9,1.9-0.9c1.4,0.1,8.6,5,14.5,9.6   c0.4,0.3,1,0.3,1.5,0c0.4-0.4,0.5-1,0.2-1.4C79,67,78,64.5,78.1,64C78.5,63.2,79.1,62.5,79.7,61.8z M49.7,37.4   c0.4,1.3,1.3,3.5,3.1,5.2c0.3,0.3,0.7,0.6,1.1,1c1.7,1.5,3.5,3.1,4.3,5.8c-0.3-0.2-0.6-0.4-0.9-0.7c-3.1-2.2-7-4.9-11.7-4.9   c-0.1,0-0.2,0-0.3,0h-0.1c-0.1,0-1.4,0.2-3.2,0.7C44.2,41.5,47.3,38.2,49.7,37.4z M29,73.2c0-1.2,0.3-3.2,1.7-4.6   c1.2,0.9,2.5,1.8,3.8,2.7C33.1,71.8,30.8,72.7,29,73.2z M58.5,73.1c1,1.3,2.8,1.8,4.6,2.2c0.5,0.1,1,0.3,1.5,0.4   c0.3,0.1,0.6,0.3,0.9,0.5c-0.7,0-1.2,0-1.4,0c-0.1,0-8.4,0.5-15.2-2.7c1.5-0.6,2.9-1.5,4.2-2.4C55.6,71.8,58.1,72.7,58.5,73.1z    M62.4,67.7c-2.5-1.1-4.7-1.2-6.4-1.2c-0.6,0-1.3,0-1.9,0c-0.5,0-1,0-1.5,0c-1,0-1.7-0.1-2.3-0.3c-2.9-1-5.5-3-5.5-3   c-0.2-0.1-0.3-0.2-0.5-0.2c0.1-0.4,0.2-0.8,0.4-1.2c0.2,0.2,0.3,0.3,0.3,0.3s0,0.1,0.1,0.1c0.2,0.2,0.9,0.9,2.6,1.8   c0.4,0.2,0.9,0.3,1.4,0.3c1.2,0,2.5-0.5,3.8-0.9C54,63,55,62.7,56,62.6s2.1,0.2,3.4,1.1l0,0C59.9,64.1,61.2,65.8,62.4,67.7z    M77.9,60.3c-0.6,0.8-1.3,1.7-1.8,2.7c-0.4,0.7-0.2,1.8,0.2,3c-4.5-3.3-10.3-7.3-12.2-7.3c-2.3,0-3.6,1.3-4,2.1   c-0.1,0.1-0.2,0.3-0.3,0.4c-1.4-0.7-2.7-1-4-0.9c-1.2,0.1-2.4,0.5-3.6,0.9c-1.1,0.4-2.3,0.8-3.1,0.8c-0.2,0-0.4,0-0.4-0.1   c-1.3-0.6-1.7-1.1-1.8-1.2c-0.1-0.2-0.5-0.5-1.4-1.5l-0.1-0.1c0-0.1-0.1-0.1-0.2-0.1c0-0.2,0-0.4,0.1-0.6c0.5-6.5-6.6-9.1-6.9-9.2   c-0.6-0.2-1.3,0.1-1.5,0.7c-0.2,0.6,0.1,1.3,0.7,1.5c0.1,0,5.8,2.1,5.4,6.9c-0.4,5.2-2.8,7.8-2.8,7.8c-0.4,0.5-0.4,1.2,0,1.6   c0.5,0.4,1.2,0.4,1.6,0c0.1-0.1,0.9-0.9,1.7-2.6c0.3,0.2,3,2.2,6.1,3.3c1,0.4,2,0.4,2.9,0.4c-2.2,1.6-5.3,3.5-8.3,3.6   c-3.9,0.1-9.8-3.4-17.7-10.5c0.1,0,0.2-0.1,0.3,0c0.4,0.1,1.8,1,2.9,1.9c0.5,0.4,1.2,0.4,1.6-0.1s0.4-1.2-0.1-1.6   c-0.6-0.5-2.7-2.3-4.1-2.5c-0.7-0.1-1.3,0.1-1.8,0.4c0-1.5,0.5-3.9,0.9-4.5c0.3-0.2,1-0.6,1.8-1c2.2-1.2,5.9-3.2,8.9-5.3   c3.6-2.5,7.9-3.2,8.4-3.3c4-0.1,7.4,2.4,10.5,4.5c2.1,1.5,3.9,2.7,5.6,3.1c3.3,0.7,9.7-6.4,13.6-11.4c0.2,0.6,0.5,1.1,1.1,1.5   c1,0.9,1.2,1.9-0.9,5.5c-1.9,3.3,0.5,5.3,2.2,6.7c0.5,0.4,1.1,0.9,1.6,1.4C79.6,58,79.4,58.4,77.9,60.3z"></path><path d="M18.4,48.1c-1.7,0-3.2,1.4-3.2,3.2c0,1.7,1.4,3.2,3.2,3.2s3.2-1.4,3.2-3.2C21.5,49.5,20.1,48.1,18.4,48.1z M18.4,52.1   c-0.5,0-0.9-0.4-0.9-0.9s0.4-0.9,0.9-0.9s0.9,0.4,0.9,0.9C19.3,51.7,18.9,52.1,18.4,52.1z"></path><path d="M77.3,25c-7.7-1.1-17.4-1.7-27.1-1.7S30.8,23.9,23.1,25C12,26.6,11,28.3,11,29.2C10.2,31,5.4,43.7,8.4,54.8   c3,11.4,11.5,24.2,19.7,29.8c0.7,0.6,5.4,3.9,21.9,4.1c0.3,0,0.6,0,0.9,0c16.8,0,23-5.6,23.2-5.8c0.7-0.6,16.4-14.3,18.2-32.6   c0.1-0.5,1.3-13.4-2.8-21.1C89.3,28.2,88.1,26.6,77.3,25z M89.9,50c-1.7,17.5-17.2,31-17.4,31.2c-0.1,0.1-6.1,5.4-22.5,5.2   c-16.3-0.2-20.4-3.5-20.4-3.5l-0.1-0.1c-7.8-5.3-15.9-17.6-18.8-28.6c-3-10.9,2.4-24.2,2.4-24.3v-0.1c1.7-1.5,16.7-4.2,37-4.2   s35.3,2.7,37,4.2c0,0.1,0.1,0.2,0.1,0.3C91.2,37.1,89.9,49.8,89.9,50z"></path><path d="M25.9,39.3c0-2.1-1.7-3.8-3.8-3.8s-3.8,1.7-3.8,3.8s1.7,3.8,3.8,3.8S25.9,41.3,25.9,39.3z M22.2,40.7   c-0.8,0-1.5-0.7-1.5-1.5s0.7-1.5,1.5-1.5s1.5,0.7,1.5,1.5C23.6,40.1,23,40.7,22.2,40.7z"></path><circle cx="36.6" cy="57.7" r="1.4"></circle></g></svg>