<svg xmlns="http://www.w3.org/2000/svg" xmlns:xlink="http://www.w3.org/1999/xlink" version="1.1" x="0px" y="0px" viewBox="0 0 100 100" style="enable-background:new 0 0 100 100;" xml:space="preserve"><g><path d="M39,46.2c-0.6,0-1.2,0.6-1.1,1.2c0,1-0.2,4.7-2,5c-0.5,0.1-1.3-0.4-2.1-1.2c-1.9-2.1-3.1-5.4-2.9-6.2   c0.1-0.4,0.2-0.8,0.4-1.3c0.6-1.9,1.3-4.2,1-7.4c-0.1-0.6-0.7-1.1-1.3-1c-0.6,0.1-1.1,0.7-1,1.3c0.3,2.6-0.3,4.6-0.9,6.4   c-0.2,0.5-0.3,0.9-0.4,1.4c-0.5,2,1.4,6.1,3.5,8.3c1.5,1.6,2.7,2,3.7,2c0.2,0,0.4,0,0.5,0c3.2-0.6,4-4.9,3.9-7.4   C40.2,46.7,39.7,46.2,39,46.2z"></path><path d="M54.4,46.8L54.4,46.8c0.7-0.7,1-1.6,0.4-3.5c-0.4-1.2-1-1.9-1.9-2.3c-1.3-0.5-1.9-0.7-2.3-0.8c-0.4-1.1-1-1.8-1.8-2.1   c-1.3-0.6-2.7,0-3.5,0.4c-0.1-0.1-0.3-0.2-0.5-0.4c-0.9-0.7-1.2-0.9-1.4-1.1c-2-0.9-3.5-3-5.1-5.1c-0.7-1-1.5-2-2.4-3   c0.2-0.4,0.3-1,0.1-1.8c-0.7-2.6-3-4.3-5.8-4.3c-0.5,0-0.9,0-1.4,0.1c-0.2,0-0.4,0.1-0.6,0.1c-2,0-3.8-1.7-3.9-1.7   c-0.4-0.4-1.1-0.4-1.6,0c-0.7,0.6-2.8,2.6-3.3,4.4c-0.7,0.4-1.6,1.1-2.4,1.7h-0.1C11.7,28.6,9,31.7,9.6,36c0.5,3.8,0.7,7.5,0.7,7.5   c0,0.4,0.2,0.8,0.6,1c0.2,0.1,0.4,0.2,0.6,0.2c-0.3,0.3-0.6,0.6-1,0.8c-0.7,0.3-1.4,1.1-1.5,2.1c0,0.4,0,1,0.2,1.7   c0.5,1.9,1.3,3.8,3.8,4.3c0.1,2.2,0.1,6,0,7.1c-0.2,1.9,1.4,5.2,1.7,5.9c0.1,0.2,0.3,0.4,0.5,0.5c0.3,2.6,0.9,7.2,1.1,9.5   c0.3,2.3-0.5,3-0.6,3.1c-0.4,0.2-1.8,1-3.1,3c-0.6,1.3-0.5,2.3-0.3,3c0.4,1.4,1.6,2.1,1.7,2.2c0.1,0,0.2,0.1,0.2,0.1   c0.3,0.1,1.8,0.5,3.4,0.5s3.3-0.4,4.1-1.9c1.2-2.3,1.7-5.9,1.7-6.4l0.9-5.1c1.1,1.5,2.7,3.1,4.8,4.1l3,1.6c-0.2,1.5-0.5,3-0.8,4.4   c-0.4,1.7-1.5,3.1-3.1,4c-1.4,0.9-2.3,1.9-2.5,3s0,2.1,0.6,3c0.9,1.2,2.5,2,4.6,2.3c0.2,0,0.5,0,0.7,0c3.3,0,5.6-3.1,6.4-6.5l1-1.1   l0.1,0.2c0.1,0.3,0.4,0.5,0.7,0.6s0.6,0.1,0.9,0c0.2-0.1,5.1-2.5,7.2-7.7c0.3-0.6,0.5-1.3,0.8-2c1.6,1.5,4.3,3.5,6.2,2.5   c0.2-0.1,0.7-0.2,1.1-0.5c0.2,0.1,0.4,0.3,0.6,0.4c0.1,1.4,0.1,2.9-0.1,3.3c-0.9,0.6-2.1,1.9-1.9,3.4c0.1,0.8,0.5,1.8,2.3,2.4   c0.6,0.2,1.3,0.3,2,0.3c1.6,0,3.2-0.5,4.7-1.4c2-1.3,3.2-3.3,3.6-5.6c1.2-0.3,2.1-0.8,2.6-1.7c1.2-1.9,1.2-3.4,1.2-4.7   c0-1.1,0-2,0.7-3.4c2-3.9,0.2-11.3-2.1-14.5C68.6,60.1,62.4,54.3,54.4,46.8z M47.8,40.3c0.2,0.1,0.4,0.4,0.6,1   c0.2,0.6,0.7,1,1.2,1.2c0.3,0.1,0.6,0.2,0.9,0.2c0.3,0.1,0.8,0.3,1.4,0.5c0.3,0.1,0.5,0.6,0.6,0.9c0.2,0.6,0.2,0.9,0.2,1l-0.1,0.1   c-0.4,0.4-1.6,1.4-1.2,3.3c0.1,0.6,0,1.1-0.2,1.4c-0.1,0.1-0.3,0.3-0.9,0.4c0,0-0.8-0.8-0.8-4.3c0-2-1.2-3.4-2.2-4.4   c-0.3-0.4-0.6-0.7-0.8-1C47,40.3,47.5,40.1,47.8,40.3z M23.7,23.6c1,0.7,2.7,1.6,4.6,1.6c0.3,0,0.7,0,1-0.1s0.6-0.1,0.9-0.1   c1.7,0,3.1,1,3.5,2.6c0,0.1,0,0.2,0,0.2c-0.1,0.1-0.5,0.3-1.7,0.3c-0.3,0-0.6,0-0.6,0c-0.5,0-0.9,0.2-1.2,0.6   C30,29.1,30,29.6,30.4,30c0.3,0.4,0.4,0.6,0.5,0.7c-0.1,0.1-0.1,0.1-0.2,0.2s-0.1,0.1-0.2,0.2c0,0-0.2,0-0.4,0   c-0.9,0-2.2-0.4-3.3-0.9c-0.3-0.1-0.3-0.3-0.3-0.3c-0.1-0.3,0.1-0.7,0.1-0.9c0.2-0.4,0.2-0.9-0.1-1.2c-0.2-0.3-0.6-0.5-1-0.5   c-0.1,0-0.1,0-0.2,0c-1.8,0.3-2.8,0-3.8-1.1C21.8,25.8,22.7,24.7,23.7,23.6z M14.7,30.6c-1.3,2.8-1.3,5.7-1.4,8.2   c0,0.9,0,1.7-0.1,2.5l-0.6,0.3c-0.1-1.5-0.3-3.7-0.6-6C11.7,33.3,12.6,31.7,14.7,30.6z M13.2,47.4c-0.1,0.6-0.3,0.8-0.8,0.8   c-0.2-0.2-0.6-0.5-0.9-0.8C12.2,47.4,12.8,47.4,13.2,47.4z M21.3,79.8L21.3,79.8c-0.1,1.1-0.6,4-1.5,5.7c-0.5,0.9-3,0.7-4.7,0.3   c-0.1-0.1-0.4-0.4-0.5-0.7c-0.1-0.3,0-0.6,0.2-1c1-1.6,2-2.1,2.1-2.1c0,0,0,0,0.1,0c0.2-0.1,2.3-1.3,1.8-5.4   c-0.2-1.5-0.4-3.7-0.7-5.9c0.4,0.5,0.8,1.1,1.3,1.6l2.8,2.8L21.3,79.8z M62.5,89.5c-1.7,1.1-3.6,1.2-4.6,0.8   c-0.5-0.2-0.7-0.4-0.7-0.5c0-0.3,0.5-1,0.9-1.2c0.8-0.5,1.2-1.8,1.2-3.9c1.8,0.8,3.9,1.2,5.6,1.3C64.5,87.9,63.4,88.9,62.5,89.5z    M69.7,75c-1,1.9-1,3.3-1,4.6c0,1.1,0,2-0.8,3.4c-0.2,0.4-0.9,0.6-1.8,0.7c-2.6,0.3-6.2-0.8-8.2-2.4c0.5-0.9,1.8-2.9,2.3-3.7   c0.4-0.4,2.5-1,4.5-1.3c0.6-0.1,1.1-0.7,1-1.4c-0.1-0.6-0.7-1.1-1.4-1c-2.4,0.4-5.3,1.2-6,2.4c-0.5,0.9-2.2,3.5-2.5,4   c-0.6,0.7-1.4,0.9-1.4,0.9c-0.1,0-0.3,0.1-0.4,0.2c-0.5,0.2-2.4-1-4.2-2.8c1.6-4.3,3.1-8.7,3.1-8.7c0.2-0.6-0.1-1.3-0.7-1.5   c-0.6-0.2-1.3,0.1-1.5,0.7c0,0.1-2.8,8.3-4.8,13c-1.2,3-3.6,4.9-5,5.8l-0.3-0.6c-0.2-0.4-0.5-0.6-0.9-0.7s-0.8,0.1-1.1,0.4   l-2.4,2.6C36.1,89.8,36,90,36,90.2c-0.5,2.6-2.2,5.2-4.5,4.9c-1.5-0.2-2.6-0.7-3-1.3c-0.2-0.3-0.3-0.7-0.2-1.1   c0.1-0.4,0.6-0.9,1.4-1.4c2.1-1.2,3.6-3.2,4.1-5.4c1.5-5.7,1.5-12.8,1.5-13.1c0-0.6-0.5-1.2-1.2-1.2l0,0c-0.6,0-1.2,0.5-1.2,1.2   c0,0,0,2.5-0.3,5.6l-2.2-1.2c-3.9-2-5.6-6.3-5.7-6.3c-0.2-0.5-0.7-0.8-1.3-0.7c-0.5,0.1-1,0.5-1,1.1v0.8L21,70.5   c-2.8-2.8-3.1-6.7-3.1-6.8c0-0.5-0.4-1-1-1.1c-0.5-0.1-1,0.1-1.2,0.5c-0.3-0.9-0.5-1.7-0.5-2.2c0.2-1.3,0.1-5.2,0-7.2   c0.6,0,1.3-0.1,2-0.3h0.1c5.5-1,7.1-1.3,9.2-5.2c0.3-0.6,0.1-1.3-0.5-1.6s-1.3-0.1-1.6,0.5c-1.5,2.9-2.2,3-7.5,4h-0.1   c-2.8,0.5-4,0.2-4.7-0.6h0.1c2.6-0.1,3-2,3.2-3.1c0-0.1,0.1-0.2,0.1-0.4c0.1-0.5,0-1-0.3-1.4c-0.2-0.3-0.6-0.5-1.1-0.6   c3.8-3.7,4.7-6.6,4.7-8.4c0-0.6-0.5-1.2-1.2-1.2l0,0c-0.6,0-1.2,0.5-1.2,1.2c0,0.6-0.2,1.6-0.9,2.9c0-0.3,0-0.6,0-0.9   c0-3,0.1-6.4,2.4-9.2c0.2-0.3,1-0.9,2.1-1.6c1.2,1.2,2.5,1.8,4.1,1.9c0,0.3,0,0.6,0.1,0.9c0.2,0.7,0.8,1.3,1.5,1.7   c1.4,0.7,3.1,1.2,4.3,1.2c0.9,0,1.5-0.2,2-0.7c0.1-0.1,0.1-0.1,0.2-0.2c0.6-0.6,1.1-1.3,1-2.3c0.3,0,0.5-0.1,0.8-0.2   c0.8,1,1.6,2,2.3,3c1.8,2.4,3.4,4.7,6,5.9c0.2,0.1,0.7,0.5,1,0.8c0.2,0.2,0.4,0.4,0.6,0.5c0.1,1,0.9,1.9,1.6,2.7   c0.8,0.9,1.6,1.7,1.6,2.8c0,3,0.5,5.1,1.5,6c0.5,0.5,1.1,0.7,1.8,0.6c1.4-0.1,2.2-0.8,2.6-1.3c0.4-0.5,0.6-1.1,0.7-1.8   c5.8,5.4,13,12.1,14,13.5C69.6,65.5,71.2,72.1,69.7,75z"></path><path d="M51.5,56.2c-1-0.5-2.5-1-3.7-1c-0.5,0-1,0.1-1.3,0.3c-0.7,0.4-1.1,1-1.2,2c-0.2,1.9,0.3,2.9,0.7,3.7s0.6,1.3-0.4,2.3   C45,64.1,44.8,65,45.2,66s1.5,2.1,2.9,2.2c0.1,0,0.1,0,0.2,0c0.9,0,2.3-0.4,3.6-2.6c2.7-4.6,2.4-6.1-0.1-9.1   C51.7,56.4,51.6,56.3,51.5,56.2z M50,64.4c-0.5,0.9-1.2,1.5-1.6,1.4c-0.4,0-0.8-0.4-0.9-0.7c0-0.1,0-0.1,0-0.2   c1.8-2.1,1.3-3.6,0.7-4.9c-0.3-0.6-0.6-1.2-0.4-2.4c0-0.1,0-0.1,0-0.2c0,0,0.1,0,0.2,0c0.7,0,1.7,0.3,2.4,0.7   C51.9,60.2,52.1,60.6,50,64.4z"></path><path d="M80.1,25.2c0.1-0.3,0.1-0.6-0.1-0.9l-3.1-5.7c0,0,0-0.1-0.1-0.1c-0.2-0.3-0.6-0.6-1-0.8C75,16.4,73.5,14,71,11.1   c-1.5-1.8-5.1-4.8-7.2-5.9L63.5,5c-1.7-0.9-3.2-1.7-5.1-2.2c-2.7-0.7-6.8-0.1-9,1.3c-0.9,0.6-1.5,1.3-1.6,2.1l-0.1,0.3   C47.5,8,48,9.7,49.3,10.7L38.9,24.6c-0.4,0.5-0.3,1.3,0.2,1.6c0.2,0.2,0.5,0.2,0.7,0.2c0.4,0,0.7-0.2,0.9-0.5L51.2,12   c0.4,0.3,0.9,0.5,1.4,0.8l-9.7,14.1c-0.4,0.5-0.2,1.3,0.3,1.6c0.2,0.1,0.4,0.2,0.7,0.2c0.4,0,0.7-0.2,1-0.5l9.9-14.5   c0.4,0.2,0.8,0.3,1.2,0.4l-8.6,15.4c-0.3,0.6-0.1,1.3,0.5,1.6c0.2,0.1,0.4,0.1,0.6,0.1c0.4,0,0.8-0.2,1-0.6l8.8-15.8   c0.5,0.2,1.1,0.3,1.7,0.4c1.5,0.4,3.2-0.1,4.3-1.3l0.2-0.2c1.3,1.2,4.1,3.7,6.4,7c-0.1,0.5,0.1,1.1,0.4,1.5l3.4,5.2   c0.2,0.3,0.5,0.5,0.8,0.5c1.3,2.4,8.8,16.5,10.4,32.1c0,0.3,0.2,0.6,0.5,0.8c0.2,0.1,0.4,0.2,0.7,0.2c0.1,0,0.2,0,0.3,0l2.7-0.6   c0.6-0.1,0.9-0.6,0.9-1.2C90.3,44.5,81.4,27.7,80.1,25.2z M65.1,11.3c-0.5-0.4-1.1-0.3-1.6,0.1l-1,1C62,13,61.1,13.2,60.4,13   c-4.5-1-7.6-2.7-9.5-3.9c-0.7-0.5-1.1-1.4-0.9-2.3l0.1-0.3c0-0.1,0.2-0.3,0.7-0.6C52.3,5,55.7,4.4,57.9,5c1.6,0.4,2.9,1.1,4.6,2   l0.3,0.2c1.7,0.9,5.1,3.8,6.5,5.4c2.1,2.4,3.4,4.4,4.3,5.8l-1,0.6C69.2,14.5,65.3,11.4,65.1,11.3z M73.4,21.2l1.7-1.1l2.4,4.3   L76,25.3L73.4,21.2z M88.1,58.6C86.2,43.3,79.2,30,77.6,27.1l0.6-0.4c1.7,3.2,9.4,18.5,10.4,31.8L88.1,58.6z"></path><path d="M22.7,37.5c-0.7,0.3-1.3,2-1.3,2s1.3,0.5,2.4,0.3c1.1-0.3,2.3-1.3,2.3-1.3C25,38,23.4,37.2,22.7,37.5z"></path></g></svg>