<svg xmlns="http://www.w3.org/2000/svg" data-name="Layer 1" viewBox="0 0 90 61.77" x="0px" y="0px"><title>20</title><path d="M94.37,66.63a124.59,124.59,0,0,0-4.64-12,6.86,6.86,0,0,0,.8-.32.64.64,0,0,0,.26-.23,2.75,2.75,0,0,0,.4-1.06.64.64,0,0,0,0-.33l-.1-.24h0l.41-.43c.89-.91,2.55-2.59.89-4.41L90.2,45.26C89,44,87.68,42.57,87,41.83a.61.61,0,0,0-.14-.1l-.24-.6a.64.64,0,0,0-.07-.13,27.68,27.68,0,0,1-2.1-3.52c-.25-.5-1.12-2-1.59-2.77l-.1-.17h0A34.8,34.8,0,0,0,69,22.17h0a39.07,39.07,0,0,0-10.67-2.88A39.33,39.33,0,0,0,40.63,21.7h0c-6.23,2.25-11,5.67-12.56,8.94l-1.35,3.3L26,35.66a.64.64,0,0,0,0,.46,5.9,5.9,0,0,0,.74,1.28,26.53,26.53,0,0,0-6.93,0c-.84.07-1.63.14-2.31.17-.17,0-4.21-.14-5.46-.14a2.47,2.47,0,0,0-2,1.1,4,4,0,0,0-.3,3.67,11.31,11.31,0,0,0,5.89,7.24c-2.46.6-7,2-8.92,5a.64.64,0,0,0-.08.17A50.81,50.81,0,0,0,5,62.12a5.51,5.51,0,0,0,.43,2.57l.43.93h0v0a10.88,10.88,0,0,0,2.58,3.14h0l0,0,1.13.79h0l0,0a6,6,0,0,0,3,.89h.44l1-.19.08,0c1.46-.46,1.7-1.54,2-2.91a16.1,16.1,0,0,1,1.9-5c1-1.78,1.7-3,2.19-4a9.78,9.78,0,0,1,1.05-1.77h.08c1.17.1,2.31,2,2.75,3a1.66,1.66,0,0,0-.49,1.05c0,.54,0,1.29,7.37,3a84.7,84.7,0,0,0,10.29,1.87l4.94.72a16.5,16.5,0,0,0,1.9,3.32c1.24,1.62-.35,4.15-1.5,6l-.47.76a.63.63,0,0,0-.07.44,3.66,3.66,0,0,0-.32,1.31c-.11.75.27,2.17,2.47,2.58h0l1,.14h0c.53,0,1.1.07,1.69.07.38,0,.77,0,1.15,0h0l1.32-.11h0a17.58,17.58,0,0,0,2.4-.45h0a16.66,16.66,0,0,0,3.83-1.84c1.52-1.26,3-3,1.69-7.19a50.71,50.71,0,0,0-2-4.77l-.38-.85A9.86,9.86,0,0,0,64,65.48a33.24,33.24,0,0,0,8.47,1.17,22.18,22.18,0,0,0,4.07-.35,11.4,11.4,0,0,0,4.93-2.52c.43,1.2,1.21,3.44,1.6,4.85a7.9,7.9,0,0,1-.49,3.22l-.07.22s0,0,0,0a.63.63,0,0,0,0,.2v0a3.33,3.33,0,0,0,.89,1.94c.45.52,1.44.81,3,.88h1.15A23.31,23.31,0,0,0,90.31,75h.09l.63-.18a.63.63,0,0,0,.2,0h.12a10.72,10.72,0,0,0,1.31-.33,3.21,3.21,0,0,0,1.16-.68v0h0C95.51,72.05,95.08,69.32,94.37,66.63Zm-5.09-20.5,2.15,2.3c.73.8.35,1.44-.85,2.67l0,0L88.1,44.87ZM83.33,38a28.93,28.93,0,0,0,2.15,3.62L89.9,53a1.44,1.44,0,0,1-.1.27,3,3,0,0,1-2.48.23c-.41-2-2.77-12.36-5.46-17l.32-.47C82.61,36.76,83.16,37.71,83.33,38ZM73.42,56.76c-.25-1.39-1.68-4.7-3.75-9.42-.5-1.14-1-2.21-1.36-3.13A17.15,17.15,0,0,1,71.43,43a9.63,9.63,0,0,0,5.45-3.75,76.72,76.72,0,0,1,2.67,16,.63.63,0,0,0-.14.15,4.16,4.16,0,0,1-3.68,1.68A9.34,9.34,0,0,1,73.42,56.76ZM57.61,36.13A25.56,25.56,0,0,0,58.21,30L61,28.82a68.44,68.44,0,0,1,6.58-2.59h0c2.52,2,7.56,8.22,8.77,11.32-.15.62-1.36,3-5.25,4.2A16.53,16.53,0,0,0,66.18,44a2.61,2.61,0,0,1-2.67.5,21.17,21.17,0,0,1-8-3.61A9.47,9.47,0,0,0,57.61,36.13ZM80.83,55.44a77.08,77.08,0,0,0-2.86-17,5.09,5.09,0,0,0,1,.11,2.6,2.6,0,0,0,2.08-.85c2.4,4.57,4.64,14.05,5,16-1,1-2.43,2-3.28,2A6.13,6.13,0,0,1,80.83,55.44Zm.63-20.6a21.57,21.57,0,0,0-1.26,1.91c-.51.88-2.07.46-2.74.23-1.33-3.25-6.35-9.67-9.21-11.81L69,23.59A33.58,33.58,0,0,1,81.46,34.84ZM58.17,20.54a37.1,37.1,0,0,1,9.67,2.53l-1,2c-1,.3-3,1.13-6.41,2.56l-2.7,1.13c-1-1.39-3.29-2.69-6.8-3.86a33.07,33.07,0,0,0-9.46-1.21,6.08,6.08,0,0,0,0-1A38.19,38.19,0,0,1,58.17,20.54Zm-29,10.61c1.29-2.77,5.59-5.85,11-8a1.89,1.89,0,0,1-.16.95c-.19.16-.67.46-1.18.77-2.14,1.32-5.71,3.53-7.16,6.75h0c-.59,1.31-2.09,1.76-3.51,1.86Zm3.7,1h0c1.29-2.86,4.66-4.95,6.67-6.19a14.12,14.12,0,0,0,1.33-.88L41,25a31.49,31.49,0,0,1,9.56,1.11c3.42,1.14,5.66,2.43,6.33,3.65a21.48,21.48,0,0,1-.54,6.12,7.79,7.79,0,0,1-2.09,4.44,9.68,9.68,0,0,1-3,1.15H51A11,11,0,0,1,46.1,39.9a35.79,35.79,0,0,0-8-3.06c-4.08-1.07-5.37-2.09-5.74-2.76a.63.63,0,0,0-1.11.61c.73,1.33,2.8,2.4,6.53,3.38a34.71,34.71,0,0,1,7.72,3,12.34,12.34,0,0,0,5.38,1.72h.34a8.73,8.73,0,0,0,3.22-1.1c1.38,1.45,5.48,3.4,8.78,4.1a6.7,6.7,0,0,0,1.36.17,3.75,3.75,0,0,0,2.26-.86l.34-.22c.38.89.83,1.91,1.3,3,1.47,3.35,3.68,8.41,3.68,9.3a.63.63,0,0,0,.06.26c-.85.65-3,1.17-6.3,1.57a13.35,13.35,0,0,0-3.38-5.66c-1.37-1.37-6.09-3.16-7.62-3.72a.62.62,0,0,0-.21-.25c-.37-.25-9.22-6.07-14.36-6.21-3.45-.1-5.69-1.55-8.06-3.1-.78-.51-1.59-1-2.44-1.5l0,0a6.64,6.64,0,0,1-2.56-2.61l.44-1.08C30.37,34.76,32.17,33.86,32.92,32.18ZM11,41.74a2.74,2.74,0,0,1,.14-2.5,1.22,1.22,0,0,1,.94-.57c1.23,0,5.38.14,5.47.14.76,0,1.56-.1,2.42-.17,3-.25,6.41-.54,9,.8.94.49,1.8,1.05,2.72,1.65,2.41,1.57,4.91,3.2,8.72,3.31,3.44.1,9,3.13,11.85,4.85a20.73,20.73,0,0,0-3.08.15,4.73,4.73,0,0,0-3.43.91,5.11,5.11,0,0,0-1.68,4,25,25,0,0,0,.1,3.18l-7.2-3.19c2.34-.27,4.12-.66,4.29-.7a.63.63,0,1,0-.28-1.24,45.39,45.39,0,0,1-6.46.87.62.62,0,0,0-.28,0,14.55,14.55,0,0,1-6.51-.84,27.23,27.23,0,0,0-5.48-1.94,27.93,27.93,0,0,1-5.27-1.83C12.7,46.66,11.78,44.05,11,41.74ZM7.5,65.84a1.42,1.42,0,0,1,.63.1,1.61,1.61,0,0,1,.13.88A9.73,9.73,0,0,1,7.5,65.84Zm3.23,2.91a6.15,6.15,0,0,1,.21-.79,3,3,0,0,1,1,1.22A5,5,0,0,1,10.73,68.75ZM21.57,55.33c-1-.08-1.29.45-2.35,2.44-.49.91-1.16,2.16-2.17,3.93a17.25,17.25,0,0,0-2,5.39c-.29,1.33-.41,1.74-1.11,2l-.52.09a4.8,4.8,0,0,0-1.95-2.36h0a1.18,1.18,0,0,0-1.15,0A1.89,1.89,0,0,0,9.6,68L9.51,68c0-.21,0-.43,0-.65A2.93,2.93,0,0,0,9,65a2.75,2.75,0,0,0-2.21-.42l-.2-.43a4.29,4.29,0,0,1-.33-1.94,49.56,49.56,0,0,1,1.56-7.2c2.47-3.57,9.61-4.71,9.68-4.72l.06,0a31.15,31.15,0,0,0,4.28,1.38,25.84,25.84,0,0,1,5.25,1.85,8.15,8.15,0,0,0,1.51.54,9.07,9.07,0,0,0-.68,3.17,17,17,0,0,0-2.73,1.49C24.66,57.63,23.36,55.48,21.57,55.33Zm20,9c-4.51-.38-14.82-2.77-16.45-3.78a10.88,10.88,0,0,1,3.21-2,7.29,7.29,0,0,0,1.62,2.08.63.63,0,0,0,.83-1,5.4,5.4,0,0,1-1.48-2.11,6.76,6.76,0,0,1,.63-3.17,23.06,23.06,0,0,0,4.38.18l10,4.44a29.35,29.35,0,0,0,1.5,6Zm5.59,14a.64.64,0,0,0,0-.12,2.07,2.07,0,0,1,.14-.69,6,6,0,0,1,.66,0l.13.27a1.58,1.58,0,0,1,0,1.62C47.09,79,47.11,78.37,47.13,78.25Zm3.42,1.35c.35-.7,1-1.63,1.57-1.52a3.39,3.39,0,0,1-.3,1.52C51.35,79.62,50.92,79.62,50.55,79.61Zm1.61-1.51,0,0,.13-.61Zm2.45,1.21a3.63,3.63,0,0,1,.43-.64,3.2,3.2,0,0,1,.14.53Zm4.17-15.08a.61.61,0,0,0-.15,0c-1.44-3.3-2.8-6.94-2.06-8.51a.63.63,0,0,0-1.15-.54C54.25,57.64,56.5,62.61,58.48,67a50.09,50.09,0,0,1,1.93,4.63c1.2,3.76-.24,5-1.29,5.83a12.33,12.33,0,0,1-2.72,1.35c-.16-.73-.5-1.54-1.25-1.54s-1.5,1.06-1.87,1.85a2.6,2.6,0,0,0,0-1.62,1.16,1.16,0,0,0-.86-.65h0c-1.39-.3-2.38,1.08-2.87,2a2.58,2.58,0,0,0-.33-1.74,3.06,3.06,0,0,1-.2-.44.63.63,0,0,0-.22-.31c-.09-.07-.27-.2-.9-.21,1.28-2,3.11-5,1.37-7.32-2.45-3.2-4.15-9.42-4-14.47a3.93,3.93,0,0,1,1.2-3A3.51,3.51,0,0,1,49,50.67h.19a20.12,20.12,0,0,1,5,0c1.77.63,6.39,2.43,7.52,3.55s3.72,4.2,3.35,8.24A2,2,0,0,1,64.21,64a2.61,2.61,0,0,1-.5.27h0A9.33,9.33,0,0,1,58.79,64.23ZM76.34,65a28.38,28.38,0,0,1-10.86-.52,3.29,3.29,0,0,0,.81-2,9.89,9.89,0,0,0-.07-2.34c3-.35,6-.9,7.18-2.16a10.47,10.47,0,0,0,2.32.28,5.55,5.55,0,0,0,4.4-1.81,7.44,7.44,0,0,0,2.67.52c1.64,0,3.54-1.78,4.15-2.39a3.24,3.24,0,0,0,.73.18c-.25.32-.55.71-.91,1.18C84.59,58.91,80.54,64.26,76.34,65Zm8,8.39a3.35,3.35,0,0,1-.27-.35,3.07,3.07,0,0,1,1.1.65A1.75,1.75,0,0,1,84.38,73.44Zm4,.43a2.41,2.41,0,0,1,.26-.54,1.06,1.06,0,0,1,.66.46Zm3.85-.62-.22.07a2.07,2.07,0,0,1,.33-.62,2,2,0,0,1,.25.4A2,2,0,0,1,92.26,73.25Zm-.1-1.85h0c-.94.22-1.34,1.47-1.5,2.14h0a2.32,2.32,0,0,0-2.08-1.5c-.84,0-1.29,1.13-1.48,1.84h-.19A4.17,4.17,0,0,0,84,71.73a7.24,7.24,0,0,0,.36-3.44c-.46-1.69-1.44-4.43-1.79-5.41a46.13,46.13,0,0,0,5.25-6.08c.35-.46.69-.91,1-1.26a118.84,118.84,0,0,1,4.39,11.41c.48,1.81.85,3.76.32,5.1A1.27,1.27,0,0,0,92.15,71.41Z" transform="translate(-5 -19.12)"></path><path d="M21.06,43l.36,0a2.71,2.71,0,0,0,1.82-1.18.63.63,0,0,0,.08-.45,2.5,2.5,0,0,0-2.58-1.91,2.3,2.3,0,0,0-2.49,1.77.63.63,0,0,0,.2.56A4,4,0,0,0,21.06,43Zm-.32-2.3a1.28,1.28,0,0,1,1.23.64,1.33,1.33,0,0,1-.75.38,2.24,2.24,0,0,1-1.58-.61A1.3,1.3,0,0,1,20.74,40.72Z" transform="translate(-5 -19.12)"></path></svg>